<svg xmlns="http://www.w3.org/2000/svg" viewBox="0 0 200 200" xml:space="preserve"><path fill="#D3D3D3" d="M126.2 156.5c-.1 0-.2 0-.4.1l-11 2.9-9.7-5.6 9.7-5.6 11.1 3c.7.2 1.4-.3 1.6-.9.2-.6-.1-1.2-.6-1.5h-.1L120 145l6.2-4.7c.5-.4.6-1 .4-1.5-.2-.5-.7-.8-1.2-.8-.2 0-.3.1-.5.1l-7.2 3v-7.8c.1-.6-.4-1.2-.9-1.4-.7-.2-1.4.2-1.6.9l-2.9 11-9.7 5.6v-11.2l8.1-8.1c.3-.3.4-.6.4-.9 0-.4-.2-.7-.4-.9-.4-.4-1.1-.5-1.6-.2h-.1l-6.8 3.9-1-7.8c-.1-.6-.6-1.1-1.3-1.1h-.2c-.6.1-1 .5-1.1 1.1v.1l-1 7.7-6.8-3.9h-.1c-.5-.3-1.2-.2-1.6.2-.5.5-.5 1.3.1 1.8l8.1 8.1v11.2l-9.7-5.6-3-11.1c-.2-.7-.9-1.1-1.6-.9-.6.2-.9.7-.9 1.3V141l-7.2-3c-.6-.3-1.4.1-1.7.7-.2.5-.1 1.2.4 1.5h.1l6.2 4.7-6.8 3.9H73c-.5.3-.8.9-.6 1.5.2.6.7.9 1.3.9.1 0 .2 0 .4-.1l11-2.9 9.7 5.6-9.5 5.6-11.1-3c-.7-.2-1.4.3-1.6.9-.2.6.1 1.2.6 1.5h.1l6.8 3.9-6.2 4.7h-.1c-.5.4-.6 1-.4 1.5.2.5.7.8 1.2.8.2 0 .3-.1.5-.1l7.2-3v7.8c0 .6.4 1.1.9 1.3.7.2 1.4-.2 1.6-.9l2.9-11 9.7-5.6v11.2l-8.1 8.1c-.3.3-.4.6-.4.9 0 .3.2.7.4.9.4.4 1.1.5 1.6.2l6.8-3.9 1 7.8c.1.6.6 1.1 1.3 1.1h.2c.6-.1 1-.5 1.1-1.1v-.1l1-7.7 6.8 3.9h.1c.5.3 1.2.2 1.6-.2.5-.5.5-1.3-.1-1.9l-8.1-8.1v-11.2l9.7 5.6 3 11.1c.2.7.9 1.1 1.6.9.6-.2.9-.7.9-1.3v-7.8l7.3 3c.2.1.3.1.5.1.5 0 1-.3 1.2-.8.2-.5.1-1.2-.4-1.5h-.1l-6.2-4.7 6.8-3.9c.5-.3.8-.9.6-1.5-.2-.4-.7-.8-1.3-.8zm-26.1 27.4zM197.9 67.2c-4.7-17.5-22.7-28-40.2-23.4 0 0-1.3.3-3.5.9-5.6-20.8-24.6-36.2-47.2-36.2-24.5 0-44.8 18.1-48.3 41.6-.8-.2-1.3-.3-1.3-.3-14.8-3.8-30 5-33.9 19.8-.9 3.5-1.1 7-.8 10.4-7.4 2-12 3.2-12 3.2-7 1.9-11.1 9-9.2 16 1.6 6.1 7.3 10 13.4 9.7h150.3s6.2-.3 9.4-1.1c17.5-4.9 28-23 23.3-40.6z"/></svg>