<svg xmlns="http://www.w3.org/2000/svg" viewBox="0 0 200 200" xml:space="preserve"><path fill="#D3D3D3" d="M197.9 67.2c-4.7-17.5-22.7-28-40.2-23.4 0 0-1.3.3-3.5.9-5.6-20.8-24.6-36.2-47.2-36.2-24.5 0-44.8 18.1-48.3 41.6-.8-.2-1.3-.3-1.3-.3-14.8-3.8-30 5-33.9 19.8-.9 3.5-1.1 7-.8 10.4-7.4 2-12 3.2-12 3.2-7 1.9-11.1 9-9.2 16 1.6 6.1 7.3 10 13.4 9.7h150.3s6.2-.3 9.4-1.1c17.5-4.9 28-23 23.3-40.6zM77.1 141.4h-.2l-6 1.6-5.3-3.1 5.3-3 6 1.6c.4.1.8-.1.9-.5.1-.3-.1-.6-.3-.8l-3.7-2.1 3.4-2.6c.3-.2.3-.5.2-.8-.1-.3-.4-.4-.7-.4-.1 0-.2 0-.3.1l-3.9 1.6v-4.2c0-.3-.2-.7-.5-.7-.4-.1-.8.1-.9.5l-1.6 6-5.3 3.1v-6.1l4.4-4.4c.1-.1.2-.3.2-.5s-.1-.4-.2-.5c-.2-.2-.6-.3-.9-.1l-3.7 2.1-.6-4.3c-.1-.3-.3-.6-.7-.6h-.1c-.3 0-.6.3-.6.6l-.5 4.2-3.7-2.1c-.3-.1-.6-.1-.9.1-.3.3-.3.7 0 1l4.4 4.4v6.1l-5.3-3.1-1.6-6c-.1-.4-.5-.6-.9-.5-.3.1-.5.4-.5.7v4.3l-3.9-1.6c-.3-.1-.8 0-.9.4-.1.3 0 .6.2.8l3.4 2.6-3.7 2.1c-.3.2-.4.5-.3.8.1.3.4.5.7.5h.2l6-1.6 5.3 3-5.2 3.1-6-1.6c-.4-.1-.8.1-.9.5-.1.3.1.6.3.8l3.7 2.1-3.4 2.6c-.3.2-.3.5-.2.8.1.3.4.4.7.4.1 0 .2 0 .3-.1l3.9-1.6v4.3c0 .3.2.6.5.7.4.1.8-.1.9-.5l1.6-6 5.3-3v6.1l-4.4 4.4c-.1.1-.2.3-.2.5s.1.4.2.5c.2.2.6.3.9.1l3.7-2.1.6 4.3c.1.3.3.6.7.6h.1c.3-.1.6-.3.6-.6l.5-4.2 3.7 2.1c.3.1.6.1.9-.1.3-.3.3-.7 0-1l-4.4-4.4v-6.1l5.3 3 1.6 6c.1.4.5.6.9.5.3-.1.5-.4.5-.7V147l4 1.6c.1 0 .2.1.3.1.3 0 .5-.2.7-.4.1-.3 0-.6-.2-.8l-3.4-2.6 3.7-2.1c.3-.1.4-.5.3-.8-.4-.4-.7-.6-1-.6zm-14.3 15zM150.9 159.5c-.1 0-.2 0-.4.1l-11 2.9-9.7-5.6 9.7-5.6 11.1 3c.7.2 1.4-.3 1.6-.9.2-.6-.1-1.2-.6-1.5h-.1l-6.8-3.9 6.2-4.7c.5-.4.6-1 .4-1.5-.2-.5-.7-.8-1.2-.8-.2 0-.3.1-.5.1l-7.2 3v-7.8c.1-.6-.4-1.2-.9-1.4-.7-.2-1.4.2-1.6.9l-2.9 11-9.7 5.6v-11.2l8.1-8.1c.3-.3.4-.6.4-.9 0-.4-.2-.7-.4-.9-.4-.4-1.1-.5-1.6-.2h-.1l-6.8 3.9-1-7.8c-.1-.6-.6-1.1-1.3-1.1h-.2c-.6.1-1 .5-1.1 1.1v.1l-1 7.7-6.8-3.9h-.1c-.5-.3-1.2-.2-1.6.2-.5.5-.5 1.3.1 1.8l8.1 8.1v11.2l-9.7-5.6-3-11.1c-.2-.7-.9-1.1-1.6-.9-.6.2-.9.7-.9 1.3V144l-7.2-3c-.6-.3-1.4.1-1.7.7-.2.5-.1 1.2.4 1.5h.1l6.2 4.7-6.8 3.9h-.1c-.5.3-.8.9-.6 1.5.2.6.7.9 1.3.9.1 0 .2 0 .4-.1l11-2.9 9.7 5.6-9.5 5.6-11.1-3c-.7-.2-1.4.3-1.6.9-.2.6.1 1.2.6 1.5h.1l6.8 3.9-6.2 4.7h-.1c-.5.4-.6 1-.4 1.5.2.5.7.8 1.2.8.2 0 .3-.1.5-.1l7.2-3v7.8c0 .6.4 1.1.9 1.3.7.2 1.4-.2 1.6-.9l2.9-11 9.7-5.6v11.2l-8.1 8.1c-.3.3-.4.6-.4.9 0 .3.2.7.4.9.4.4 1.1.5 1.6.2l6.8-3.9 1 7.8c.1.6.6 1.1 1.3 1.1h.2c.6-.1 1-.5 1.1-1.1v-.1l1-7.7 6.8 3.9h.1c.5.3 1.2.2 1.6-.2.5-.5.5-1.3-.1-1.9l-8.1-8.1v-11.2l9.7 5.6 3 11.1c.2.7.9 1.1 1.6.9.6-.2.9-.7.9-1.3v-7.8l7.3 3c.2.1.3.1.5.1.5 0 1-.3 1.2-.8.2-.5.1-1.2-.4-1.5h-.1l-6.2-4.7 6.8-3.9c.5-.3.8-.9.6-1.5-.2-.4-.7-.8-1.3-.8zm-26.2 27.4z"/></svg>