<svg xmlns="http://www.w3.org/2000/svg" viewBox="0 0 200 200" xml:space="preserve"><path fill="#D3D3D3" d="M197.9 67.2c-4.7-17.5-22.7-28-40.2-23.4 0 0-1.3.3-3.5.9-5.6-20.8-24.6-36.2-47.2-36.2-24.5 0-44.8 18.1-48.3 41.6-.8-.2-1.3-.3-1.3-.3-14.8-3.8-30 5-33.9 19.8-.9 3.5-1.1 7-.8 10.4-7.4 2-12 3.2-12 3.2-7 1.9-11.1 9-9.2 16 1.6 6.1 7.3 10 13.4 9.7h150.3s6.2-.3 9.4-1.1c17.5-4.9 28-23 23.3-40.6z"/><g fill="#D3D3D3"><path d="M98.1 174.8c-.3 0-.5 0-.8-.2-1.1-.4-1.6-1.7-1.1-2.7l22.8-54.1c.4-1.1 1.7-1.6 2.7-1.1 1.1.4 1.6 1.7 1.2 2.7l-22.9 54c-.3.9-1.1 1.4-1.9 1.4zM94.8 189.7c0 5.7-4.6 10.3-10.3 10.3-5.7 0-10.3-4.6-10.3-10.3s4.6-10.3 10.3-10.3c5.7 0 10.3 4.6 10.3 10.3zM60 164.4c0 3.6-2.9 6.4-6.4 6.4-3.6 0-6.4-2.9-6.4-6.4 0-3.6 2.9-6.4 6.4-6.4 3.5 0 6.4 2.9 6.4 6.4zM63.7 141.9c-.3 0-.5 0-.8-.2-1.1-.4-1.6-1.7-1.1-2.7l8.8-21.3c.4-1.1 1.7-1.6 2.7-1.1 1.1.4 1.6 1.7 1.2 2.7l-8.8 21.3c-.4.9-1.2 1.3-2 1.3zM142 170.4c0 3.6-2.9 6.4-6.4 6.4-3.6 0-6.4-2.9-6.4-6.4 0-3.6 2.9-6.4 6.4-6.4 3.5 0 6.4 2.9 6.4 6.4zM142 158c-.3 0-.5 0-.8-.2-1.1-.4-1.6-1.7-1.1-2.7l8.8-21.3c.4-1.1 1.7-1.6 2.7-1.1 1.1.4 1.6 1.7 1.2 2.7l-8.8 21.3c-.4.8-1.2 1.3-2 1.3zM91.8 159.5c-.3 0-.5 0-.8-.2-1.1-.4-1.6-1.7-1.1-2.7l11.3-27.3c.4-1.1 1.7-1.6 2.7-1.1 1.1.4 1.6 1.7 1.2 2.7l-11.3 27.3c-.4.8-1.1 1.3-2 1.3z"/></g></svg>