<svg xmlns="http://www.w3.org/2000/svg" viewBox="0 0 200 200" xml:space="preserve"><g fill="#D3D3D3"><path d="M198.4 55.3c-.9-1.2-2.6-1.4-3.7-.5l-4.6 3.6c-1 1.1-7.6 5.3-15.2 5.4-5.3.1-9.9-1.8-13.8-5.6-12.5-12.6-26.9-5.7-32.7-.3-1 1.1-7.8 5.5-15.4 5.7-5.3.1-9.9-1.8-13.8-5.7-12.5-12.5-26.9-5.7-32.7-.3-1 1.1-7.8 5.6-15.4 5.8-5.3.1-9.9-1.8-13.8-5.7-12.2-12.3-26.2-6-32.3-.7l-3 2.2c-1.2.9-1.3 2.7-.4 3.9.9 1.2 2.6 1.4 3.8.5l2.9-2.3 1.8-1.3c4-2.8 14-8 23.5 1.5 5.5 5.5 11.6 7.3 17 7.3 4.7 0 8.9-1.3 11.8-2.5 1.6-.7 5.8-2.5 7.8-4.7.7-.6 13.3-11.8 25.3.2 5.5 5.5 11.6 7.3 17 7.3 4.7 0 8.9-1.3 11.8-2.5 1.5-.7 5.7-2.5 7.7-4.7.6-.5 13.3-11.9 25.3.1 5.5 5.5 11.6 7.3 17 7.3 4.7 0 8.9-1.3 11.8-2.5 1.3-.6 4.7-2 6.8-3.9l5-3.6c1.3-1 1.4-2.9.5-4zM198.4 135.5c-.9-1.2-2.6-1.4-3.7-.5l-4.6 3.6c-1 1.1-7.6 5.3-15.2 5.4-5.3.1-9.9-1.8-13.8-5.6-12.5-12.6-26.9-5.7-32.7-.3-1 1.1-7.8 5.5-15.4 5.7-5.3.1-9.9-1.8-13.8-5.7-12.5-12.5-26.9-5.7-32.7-.3-1 1.1-7.8 5.6-15.4 5.8-5.3.1-9.9-1.8-13.8-5.7-12.2-12.3-26.2-6-32.3-.7l-3 2.2c-1.2.9-1.3 2.7-.4 3.9.9 1.2 2.6 1.4 3.8.5l2.9-2.3 1.8-1.4c4-2.8 14-8 23.5 1.5 5.5 5.6 11.6 7.3 17 7.3 4.7 0 8.9-1.3 11.8-2.5 1.6-.7 5.8-2.5 7.8-4.7.7-.6 13.3-11.8 25.3.2 5.5 5.5 11.6 7.3 17 7.3 4.7 0 8.9-1.3 11.8-2.5 1.5-.6 5.7-2.5 7.7-4.7.6-.5 13.3-11.9 25.3.1 5.5 5.5 11.6 7.2 17 7.2 4.7 0 8.9-1.3 11.8-2.5 1.3-.6 4.7-2 6.8-3.9l5-3.6c1.3-.7 1.4-2.6.5-3.8zM198.4 81.5c-.9-1.2-2.6-1.4-3.7-.5l-4.6 3.6c-1 1.1-7.6 5.3-15.2 5.5-5.3.1-9.9-1.8-13.8-5.7-12.5-12.5-26.9-5.7-32.7-.3-1 1.1-7.8 5.5-15.4 5.7-5.3.1-9.9-1.8-13.8-5.7-12.5-12.5-26.9-5.7-32.7-.3-1 1.1-7.8 5.6-15.4 5.8-5.3.1-9.9-1.8-13.8-5.7-12.2-12.2-26.2-6-32.3-.7l-3 2.2c-1.2.9-1.3 2.7-.4 3.9.9 1.2 2.6 1.4 3.8.5l2.9-2.3 1.8-1.4c4-2.8 14-8 23.5 1.5 5.5 5.5 11.6 7.2 17 7.2 4.7 0 8.9-1.3 11.8-2.5 1.6-.6 5.8-2.5 7.8-4.7.7-.6 13.3-11.8 25.3.2 5.5 5.5 11.6 7.2 17 7.2 4.7 0 8.9-1.3 11.8-2.5 1.5-.6 5.7-2.5 7.7-4.7.6-.5 13.3-11.8 25.3.2 5.5 5.5 11.6 7.2 17 7.2 4.7 0 8.9-1.3 11.8-2.5 1.3-.6 4.7-2 6.8-3.9l5-3.6c1.3-.7 1.4-2.5.5-3.7zM198.4 108.8c-.9-1.2-2.6-1.4-3.7-.5l-4.6 3.6c-1 1-7.6 5.3-15.2 5.4-5.3.1-9.9-1.8-13.8-5.7-12.5-12.5-26.9-5.7-32.7-.3-1 1.1-7.8 5.6-15.4 5.7-5.3.1-9.9-1.8-13.8-5.7-12.5-12.5-26.9-5.7-32.7-.3-1 1-7.8 5.6-15.4 5.8-5.3.1-9.9-1.8-13.8-5.7-12.2-12.2-26.2-6-32.3-.7l-3 2.3c-1.2.9-1.3 2.7-.4 3.9.9 1.2 2.6 1.4 3.8.6l2.9-2.3 1.8-1.4c4-2.8 14-8 23.5 1.5 5.5 5.5 11.6 7.2 17 7.2 4.7 0 8.9-1.3 11.8-2.5 1.6-.7 5.8-2.5 7.8-4.7.7-.6 13.3-11.8 25.3.2 5.5 5.5 11.6 7.2 17 7.2 4.7 0 8.9-1.3 11.8-2.5 1.5-.7 5.7-2.5 7.7-4.7.6-.5 13.3-11.9 25.3.1 5.5 5.5 11.6 7.3 17 7.3 4.7 0 8.9-1.3 11.8-2.5 1.3-.6 4.7-2.1 6.8-3.9l5-3.6c1.3-.8 1.4-2.6.5-3.8z"/></g></svg>