<svg xmlns="http://www.w3.org/2000/svg" viewBox="0 0 200 200" xml:space="preserve"><g fill="#D3D3D3"><path d="M72.9 71.8c-.1 0-.3 0-.5.1l-14.7 3.9-13-7.5 13-7.4 14.8 4c.9.2 1.9-.4 2.1-1.2.2-.8-.1-1.5-.8-2h-.1l-9-5.2 8.3-6.3c.6-.5.8-1.3.6-2-.3-.6-.9-1.1-1.6-1.1-.2 0-.4.1-.7.1l-9.7 4V40.9c.1-.8-.5-1.6-1.3-1.8-.9-.2-1.9.3-2.1 1.3l-3.9 14.7-13 7.5v-15L52 36.8c.4-.4.5-.8.5-1.2 0-.5-.2-.9-.5-1.2-.6-.6-1.5-.6-2.1-.3h-.1l-9 5.3L39.4 29c-.1-.8-.8-1.5-1.7-1.5h-.2c-.8.1-1.4.7-1.5 1.5v.1l-1.3 10.3-9-5.2h-.1c-.6-.4-1.5-.3-2.1.3-.6.6-.6 1.8.1 2.5l10.8 10.8v14.9l-13-7.5-4-14.8c-.3-.9-1.2-1.5-2.1-1.2-.8.1-1.3.8-1.3 1.6v10.5l-9.7-4c-.8-.4-1.9.1-2.2.9-.3.7-.1 1.5.6 2h.1l8.3 6.3-9 5.2H2c-.7.4-1.1 1.2-.8 2 .1.8.8 1.3 1.5 1.3.1 0 .3 0 .5-.1L18 61l13 7.4-12.8 7.5-14.8-4c-.9-.2-1.9.4-2.1 1.2-.2.8.1 1.5.8 2h.1l9 5.2L3 86.6h-.1c-.6.5-.8 1.3-.6 2 .3.6.9 1.1 1.6 1.1.2 0 .4-.1.7-.1l9.7-4V96c0 .8.5 1.5 1.3 1.7.9.3 1.9-.3 2.1-1.3l3.9-14.7 13-7.4v15l-10.9 10.9c-.4.4-.5.8-.5 1.2s.2.9.5 1.2c.6.6 1.5.6 2.1.3l9-5.2 1.4 10.4c.1.8.8 1.5 1.7 1.5h.2c.8-.1 1.4-.7 1.5-1.5v-.1L41 97.6l9 5.2h.1c.6.4 1.5.3 2.1-.3.7-.6.7-1.8-.1-2.5L41.2 89.2V74.3l13 7.4 4 14.8c.2.9 1.2 1.5 2.1 1.2.8-.2 1.3-.9 1.3-1.7V85.6l9.7 4c.2.1.4.1.6.1.7 0 1.3-.4 1.6-1.1.3-.7.1-1.5-.6-2h-.1l-8.3-6.3 9-5.2c.7-.4 1.1-1.2.8-2 0-.7-.7-1.3-1.4-1.3zm-35 36.8zM85.7 109.4c-3.5 0-6.4-2.8-6.4-6.4s2.8-6.4 6.4-6.4h85.2c4.1-.1 8-1.5 10.8-4.3 2.9-2.8 4.6-6.6 4.6-10.5.1-3-1.1-5.9-3.2-8-2.1-2.2-5-3.3-8-3.4h-.1c-2.2 0-4.3.8-5.9 2.4-1.6 1.5-2.5 3.7-2.5 5.9 0 .9.2 1.8.6 2.6 1.5 3.2.1 7-3.1 8.5s-7 .1-8.5-3.1c-1.2-2.6-1.8-5.3-1.7-8.1.1-5.7 2.3-10.9 6.4-14.9 4-3.9 9.3-6 14.8-6h.1c6.5.1 12.5 2.6 17 7.2s6.9 10.7 6.9 17.1c-.1 7.4-3.1 14.3-8.5 19.5-5.1 5-12.1 7.7-19.5 7.8l-85.4.1zM150.8 172.5c-5.5 0-10.8-2.1-14.8-6-4.1-4-6.3-9.3-6.4-14.9 0-2.8.6-5.5 1.7-8.1 1.5-3.2 5.3-4.6 8.5-3.1 3.2 1.5 4.6 5.3 3.1 8.5-.4.8-.6 1.7-.6 2.6 0 2.3.9 4.4 2.5 5.9s3.7 2.4 5.9 2.4h.1c3 0 5.8-1.2 7.9-3.4s3.3-5 3.2-8c-.1-4-1.7-7.7-4.6-10.5-2.8-2.7-6.7-4.2-10.9-4.3h-99c-3.5 0-6.4-2.8-6.4-6.4 0-3.5 2.8-6.4 6.4-6.4h99.3c7.5.1 14.5 2.9 19.6 7.8 5.4 5.2 8.4 12.2 8.5 19.5.1 6.4-2.4 12.5-6.9 17-4.5 4.6-10.5 7.1-16.9 7.2l-.2.2z"/></g></svg>