<svg xmlns="http://www.w3.org/2000/svg" viewBox="0 0 200 200" xml:space="preserve"><path fill="none" d="M7.1 135.1c.1.1.3.2.4.3.1.1.3.1.4.2-.1-.1-.3-.1-.4-.2-.2-.1-.3-.2-.4-.3zM5.6 133.9c.1.1.2.2.4.3l.3.3-.3-.3c-.2 0-.3-.1-.4-.3zM6.3 134.6c.1.1.3.2.4.3.1.1.2.2.4.3-.1-.1-.2-.2-.4-.3-.1-.1-.3-.2-.4-.3zM11.4 136.9c-.1 0-.3-.1-.4-.1-.2 0-.3-.1-.5-.1-.1 0-.3-.1-.4-.1.1 0 .3.1.4.1.2 0 .3.1.5.1.1 0 .3.1.4.1.2 0 .3.1.5.1.1 0 .3 0 .4.1-.1 0-.3 0-.4-.1-.1 0-.3-.1-.5-.1zM147 79h.1-.1zM12.4 137h.9-.4c-.2.1-.4.1-.5 0zM147 79zM13.6 137.1h.6-.9.3z"/><path fill="#DEDDDD" d="M45.4 84.4s-.1 0 0 0c-.1 0 0 0 0 0zM126.9 164.1c5.1-3 9.8-6.4 13.9-10.3-16.8 4.3-35.5.1-51.7-10.7H27.6c22.5 31 65.3 40.6 99.3 21zM14.9 106.8c.1-1 .2-1.9.3-2.9.2-1 .4-1.9.6-2.9.2-.7.4-1.4.7-2.3v-.1c0-.1.1-.2.1-.3.3-.7.5-1.4.8-2.1 0-.1.1-.2.2-.3v-.1c.3-.7.7-1.4 1-2 0-.1.1-.1.1-.2.3-.6.7-1.2 1.1-1.8v-.1c.1-.1.1-.2.2-.3.4-.6.8-1.2 1.3-1.7l.3-.3c.5-.6 1-1.1 1.4-1.6l.2-.2c.5-.5.9-.9 1.5-1.4l.2-.2c.5-.5 1.1-.9 1.6-1.3.1-.1.2-.2.4-.3.6-.5 1.2-.8 1.7-1.2.1-.1.2-.1.3-.2.6-.4 1.2-.7 1.8-1 .1 0 .2-.1.3-.1.6-.3 1.2-.6 1.9-.9.1-.1.3-.1.4-.2.7-.3 1.3-.5 2-.8.1 0 .2-.1.3-.1.7-.2 1.3-.4 1.9-.6.1 0 .2 0 .3-.1.7-.2 1.4-.3 2.2-.4h.1c.1 0 .2 0 .4-.1l2.1-.3h.4c.7-.1 1.4-.1 2.1-.1h.2c.6 0 1.1 0 1.7.1h.9c.6-2 1.3-3.9 2.1-5.8-.5-18.2 5.3-35.2 16.7-47-5.4 1.7-10.8 3.9-15.9 6.9-27.2 15.7-41 45.6-37.4 74.9.4-.1.9-.2 1.4-.4.1 0 .1-.1.1-.2z"/><path fill="#D3D3D3" d="M175.9 104.9c-.2-1.5-.4-2.9-.8-4.4-.2-.7-.4-1.4-.7-2.2 0-.1-.1-.3-.1-.4-.2-.7-.5-1.3-.8-2-.1-.1-.1-.2-.2-.4-.3-.7-.6-1.3-1-1.9 0 0 0-.1-.1-.1-.3-.6-.7-1.2-1.1-1.8-.1-.1-.1-.2-.2-.3-.4-.6-.8-1.1-1.2-1.7l-.3-.3c-.4-.5-.9-1.1-1.4-1.6l-.1-.1-1.4-1.4c-.1-.1-.2-.1-.2-.2-.5-.5-1-.9-1.6-1.3-.1-.1-.2-.2-.3-.2-.5-.4-1.1-.8-1.7-1.2-.1 0-.1-.1-.2-.1-.6-.4-1.1-.7-1.7-1-.1 0-.2-.1-.2-.1l-1.8-.9c-.1-.1-.2-.1-.4-.2-.6-.3-1.3-.5-1.9-.7-.1 0-.2-.1-.3-.1-.6-.2-1.3-.4-1.9-.6-.1 0-.1 0-.2-.1-.7-.2-1.3-.3-2-.4-.1 0-.3 0-.4-.1-.7-.1-1.4-.2-2-.3h-.3c-.7-.1-1.4-.1-2.1-.1h-.2c-.5 0-1.1 0-1.6.1h-.5c-.4 0-.8.1-1.2.1-.2 0-.4 0-.6.1-.4.1-.8.1-1.2.2-.2 0-.3.1-.5.1-.6.1-1.1.2-1.7.4 0 0-1.1.3-3.1.8-4.9-18.3-21.6-31.8-41.5-31.8-2.6 0-5.2.2-7.6.7-1.4.3-2.8.6-4.2 1-1.8.5-3.5 1.1-5.1 1.8C64.9 58 55 70.4 52.8 85.3c-.2 0-.3-.1-.5-.1s-.3-.1-.4-.1c-.1 0-.2 0-.2-.1h-.2c-.5-.1-.9-.2-1.4-.3-.1 0-.3-.1-.4-.1-.3-.1-.7-.1-1-.2-.2 0-.3 0-.5-.1-.3 0-.7-.1-1-.1h-1.9c-.6 0-1.2 0-1.8.1h-.3c-.6.1-1.2.1-1.7.2-.1 0-.2 0-.3.1-.6.1-1.1.2-1.7.4h-.2c-.5.1-1.1.3-1.6.5-.1 0-.2.1-.3.1-.5.2-1.1.4-1.6.6-.1 0-.2.1-.3.1-.5.2-1 .5-1.5.7-.1 0-.1.1-.2.1-.5.3-.9.5-1.4.8-.1 0-.1.1-.2.1-.5.3-.9.6-1.4 1-.1.1-.2.1-.3.2-.5.3-.9.7-1.3 1.1l-.2.2-1.2 1.2-.1.1c-.4.4-.8.9-1.2 1.3-.1.1-.2.2-.2.3-.4.4-.7.9-1 1.4-.1.1-.1.2-.2.3l-.9 1.5s0 .1-.1.1c-.3.5-.6 1.1-.8 1.6 0 .1-.1.2-.1.3-.2.5-.5 1.1-.7 1.7 0 .1-.1.2-.1.3l-.6 1.8c-.2.8-.4 1.5-.5 2.3s-.2 1.5-.3 2.3c-.1 1.5-.1 3 .1 4.5-2.6.7-4.8 1.3-6.5 1.7-2.6.7-4 1.1-4 1.1-6.1 1.6-9.8 7.9-8.1 14 .1.3.2.6.3 1 0 .1.1.2.1.3l.3.6c.1.1.1.2.2.4s.2.3.3.5c.1.1.1.2.2.4s.2.3.3.5l.3.3c.1.1.2.3.3.4l.3.3c.1.1.2.3.4.4l.3.3c.1.1.2.2.4.3l.3.3c.1.1.3.2.4.3.1.1.2.2.4.3.1.1.3.2.4.3.1.1.3.1.4.2.1.1.3.2.4.2.1.1.3.1.4.2.2.1.3.1.5.2.1.1.3.1.4.2.2.1.3.1.5.2.1 0 .3.1.4.1.2 0 .3.1.5.1.1 0 .3.1.4.1.2 0 .3.1.5.1.1 0 .3 0 .4.1h133.9s1.7-.1 3.7-.3c.7-.1 1.4-.1 2-.2.4-.1.9-.1 1.3-.2s.8-.2 1.1-.3c10.2-2.7 17.6-10.5 20.4-19.9.3-.9.5-1.8.7-2.7.1-.5.2-.9.2-1.4.2-1.4.3-2.8.3-4.3 0-.8-.1-1.8-.2-2.7z"/><path fill="#FFF" d="M175.9 104.9c.1 1 .2 1.9.2 2.9 0-1-.1-2-.2-2.9zM151.6 79.3c-.7-.1-1.4-.2-2-.3h-.3.3c.6.1 1.3.2 2 .3zM154.5 136.1zM152.1 136.5c-.7.1-1.4.2-2 .2.6 0 1.3-.1 2-.2zM146.3 137.1s1.7-.1 3.7-.3c-2 .2-3.7.3-3.7.3z"/><path fill="#FFF" d="M176.1 107.7c0 1.4-.1 2.9-.3 4.3.2-1.4.3-2.8.3-4.3zM175.6 113.4c-.2.9-.4 1.8-.7 2.7.3-.9.5-1.8.7-2.7zM164.7 85c.5.4 1.1.8 1.6 1.3-.5-.5-1.1-.9-1.6-1.3-.1-.1-.2-.2-.3-.2-.5-.4-1.1-.8-1.7-1.2.6.4 1.1.8 1.7 1.2.1 0 .2.1.3.2zM167.9 87.9l.1.1c.5.5.9 1 1.4 1.6l.3.3-.3-.3c-.4-.5-.9-1.1-1.4-1.6 0 0 0-.1-.1-.1l-1.4-1.4c-.1-.1-.2-.1-.2-.2.1.1.2.1.2.2.5.4 1 .9 1.4 1.4zM171.1 91.8c-.1-.1-.1-.2-.2-.3-.4-.6-.8-1.1-1.2-1.7.4.5.8 1.1 1.2 1.7.1.1.2.2.2.3zM154 79.8c.1 0 .1 0 .2.1 0 0-.1-.1-.2-.1-.7-.2-1.3-.3-2-.4-.1 0-.3 0-.4-.1.1 0 .3 0 .4.1.7.1 1.4.2 2 .4zM162.7 83.6c-.1 0-.1-.1-.2-.1.1 0 .1 0 .2.1zM172.3 93.7c.4.6.7 1.3 1 1.9-.3-.6-.7-1.3-1-1.9 0 0 0-.1 0 0-.4-.7-.8-1.3-1.2-1.9.4.6.8 1.2 1.2 1.9 0-.1 0 0 0 0zM156.4 80.5c.6.2 1.3.5 1.9.7.1.1.3.1.4.2l1.8.9c.1 0 .2.1.2.1-.1 0-.2-.1-.2-.1l-1.8-.9c-.1-.1-.2-.1-.4-.2-.6-.2-1.2-.4-1.9-.7-.1 0-.2-.1-.3-.1-.6-.2-1.3-.4-1.9-.6.6.2 1.3.4 1.9.6.1.1.2.1.3.1zM52.2 85.4c-.1 0-.3-.1-.4-.1-.1 0-.2 0-.2-.1 0 0 .1 0 .2.1.1 0 .2 0 .4.1zM174.3 98c0 .1.1.2.1.4.2.7.5 1.4.7 2.2.4 1.5.7 2.9.8 4.4-.2-1.5-.4-2.9-.8-4.4-.2-.7-.4-1.4-.7-2.2-.1-.2-.1-.3-.1-.4-.2-.7-.5-1.3-.8-2-.1-.1-.1-.2-.2-.4.1.1.1.2.2.4.2.6.5 1.3.8 2zM146.9 79c-.5 0-1.1 0-1.6.1h-.5.5c.6-.1 1.1-.1 1.6-.1zM27.6 92.1c-.4.4-.8.9-1.2 1.3-.1.1-.2.2-.2.3.1-.1.2-.2.2-.3.4-.5.8-.9 1.2-1.3zM49.7 84.8c.1 0 .3 0 .4.1-.1-.1-.3-.1-.4-.1-.3-.1-.7-.1-1-.2-.2 0-.3 0-.5-.1.2 0 .3 0 .5.1.3.1.7.1 1 .2zM23.1 98.8c-.2.5-.5 1.1-.7 1.7 0 .1-.1.2-.1.3 0-.1.1-.2.1-.3.2-.6.4-1.2.7-1.7zM21.2 104.9c.1-.8.3-1.5.5-2.3-.2.7-.4 1.5-.5 2.3z"/><path fill="#D3D3D3" d="M197.4 81.1c-2.4-8.8-11.3-14-20.1-11.7 0 0-.6.2-1.8.5-2.8-10.4-12.3-18.1-23.6-18.1-7.5 0-14.1 3.4-18.6 8.7 3.2 3.7 5.8 7.9 7.9 12.4 1.6-.2 3.3-.3 5-.3 16.9 0 31.8 11.4 36.2 27.8l.3 1.5c1-.1 2.2-.2 3-.4 8.9-2.5 14.1-11.6 11.7-20.4z"/></svg>