<svg xmlns="http://www.w3.org/2000/svg" viewBox="0 0 200 200" xml:space="preserve"><path fill="none" d="M7.5 148.5c-.1-.1-.3-.2-.4-.3.1.1.2.2.4.3zM6.7 147.9c-.1-.1-.3-.2-.4-.3.1.1.3.2.4.3zM6 147.3c-.1-.1-.3-.2-.4-.3.1.1.2.2.4.3zM4.6 146c-.1-.1-.2-.3-.3-.4.1.1.2.2.3.4zM4.1 145.2c-.1-.1-.2-.3-.3-.5.1.2.1.4.3.5zM5.3 146.7c-.1-.1-.2-.3-.4-.4.1.1.2.3.4.4zM10.1 149.6c-.2-.1-.3-.1-.5-.2.1.1.3.2.5.2zM8.3 148.9c-.2-.1-.3-.2-.4-.2.1.1.3.1.4.2zM30.4 102.6c.1-.1.2-.1.3-.2-.1 0-.2.1-.3.2zM9.2 149.3c-.2-.1-.3-.1-.5-.2.2.1.3.1.5.2zM26.2 106.7c.1-.1.2-.2.2-.3 0 .1-.1.2-.2.3zM3.5 144.4c-.1-.2-.2-.3-.3-.5.1.2.2.3.3.5zM25 108.3c.1-.1.1-.2.2-.3-.1.2-.1.3-.2.3zM28.9 103.8l.2-.2c0 .1-.1.2-.2.2zM27.6 105.1l.1-.1-.1.1zM24 109.9s.1 0 0 0c.1 0 0 0 0 0zM11.9 150c-.2 0-.3 0-.5-.1.2.1.4.1.5.1zM2.7 142.6zM3.1 143.5l-.3-.6.3.6zM22.3 113.8c0-.1.1-.2.1-.3-.1.1-.1.2-.1.3zM23.1 111.9c0-.1.1-.2.1-.3 0 0-.1.1-.1.3zM11 149.9c-.2 0-.3-.1-.5-.1.2 0 .3 0 .5.1zM154 92.9c.1 0 .1 0 .2.1 0-.1-.1-.1-.2-.1zM156.1 93.5c.1 0 .2.1.3.1-.1 0-.2-.1-.3-.1zM158.3 94.3c.1.1.3.1.4.2-.1-.1-.2-.1-.4-.2zM151.6 92.4c.1 0 .3 0 .4.1-.1-.1-.3-.1-.4-.1zM160.5 95.4c.1 0 .2.1.2.1s-.1-.1-.2-.1zM143.1 92.3c.2 0 .4-.1.6-.1-.2 0-.4.1-.6.1zM141.4 92.6c.2 0 .3-.1.5-.1-.2 0-.3 0-.5.1zM162.5 96.5c.1 0 .1.1.2.1-.1 0-.1-.1-.2-.1zM144.9 92.1h.5-.5zM147 92h.1-.1zM164.4 97.8c.1.1.2.2.3.2-.1 0-.2-.1-.3-.2zM174.3 111c0 .1.1.2.1.4-.1-.1-.1-.2-.1-.4zM173.3 108.7c.1.1.1.2.2.4-.1-.2-.2-.3-.2-.4zM172.2 106.7c.1 0 .1 0 0 0 .1 0 .1 0 0 0zM13.5 150.2h.7-.9.2zM166.3 99.3c.1.1.2.1.2.2-.1 0-.1-.1-.2-.2zM170.9 104.6c.1.1.1.2.2.3 0-.1-.1-.2-.2-.3zM12.9 150.1h-.5.5zM167.9 100.9l.1.1-.1-.1zM169.5 102.6l.3.3c-.2-.1-.3-.2-.3-.3zM149.2 92.1h.3-.3zM35.5 99.6c.1 0 .2-.1.3-.1-.1 0-.2 0-.3.1zM33.8 100.4c.1 0 .1-.1.2-.1-.1 0-.2.1-.2.1zM39.3 98.2h.2-.2zM41.2 97.8zM37.4 98.8c.1 0 .2-.1.3-.1-.1 0-.2.1-.3.1zM32.1 101.4c.1 0 .1-.1.2-.1 0 0-.1 0-.2.1z"/><path fill="#DDC72D" d="M49.7 97.8c.1 0 .3 0 .4.1-.1 0-.3 0-.4-.1zM45.4 97.5s-.1 0 0 0c-.1 0 0 0 0 0zM46.8 97.5h.4-.4z"/><path fill="#F9D915" d="M48 91.6c2.6-9.1 7.8-17.3 15-23.6 3.6-3.2 7.7-5.7 12-7.7-4.7-5.9-11.9-9.6-20-9.6-14.1 0-25.6 11.5-25.6 25.6 0 6.4 2.4 12.3 6.3 16.8 3.1-1 6.3-1.6 9.7-1.6.9 0 1.8 0 2.6.1z"/><path fill="#DDC72D" d="M48.2 97.6c.2 0 .3 0 .5.1-.2 0-.3-.1-.5-.1zM43.3 97.6h.3c-.1-.1-.2-.1-.3 0zM41.5 97.8c-.1 0-.2 0-.3.1.1-.1.2-.1.3-.1z"/><path fill="#F9D915" d="m26.8 31 8.7 21.1c2.5-2.1 5.4-3.7 8.6-4.9L30.2 29.1c-.6-.8-1.9-1-2.7-.3-.7.5-.9 1.4-.7 2.2-.1-.1-.1 0 0 0zM60 45.6 57.1 23v-.1c-.2-1-1.1-1.8-2.2-1.7-.8.1-1.5.7-1.7 1.5v.1l-3 22.6c1.6-.3 3.2-.4 4.9-.4 1.6.2 3.3.4 4.9.6zM1.6 78.1h.1l22.6 3c-.3-1.6-.4-3.2-.4-4.9 0-1.7.1-3.4.4-5l-22.6 3h-.1c-1 .2-1.8 1.1-1.6 2.2.1.8.7 1.5 1.6 1.7zM83.4 31.2c.1 0 .1-.1 0 0 .2-.5.2-1 0-1.5s-.6-.9-1.1-1.1c-.8-.3-1.7-.1-2.2.5l-.1.1-14 18.1c3.1 1.2 6 2.9 8.5 5l8.9-21.1zM7.9 51.2l18.1 14c1.2-3.1 2.9-6 5-8.5L9.9 47.8h-.1c-1-.4-2.1.1-2.5 1.1-.3.8-.1 1.7.5 2.2.1 0 .1.1.1.1z"/><path fill="#D3D3D3" d="M175.1 113.6c-.2-.7-.4-1.4-.7-2.2 0-.1-.1-.3-.1-.4-.2-.7-.5-1.3-.8-2-.1-.1-.1-.2-.2-.4-.3-.7-.6-1.3-1-1.9 0 0 0-.1-.1-.1-.3-.6-.7-1.2-1.1-1.8-.1-.1-.1-.2-.2-.3-.4-.6-.8-1.1-1.2-1.7l-.3-.3c-.4-.5-.9-1.1-1.4-1.6l-.1-.1-1.4-1.4c-.1-.1-.2-.1-.2-.2-.5-.5-1-.9-1.6-1.3-.1-.1-.2-.2-.3-.2-.5-.4-1.1-.8-1.7-1.2-.1 0-.1-.1-.2-.1-.6-.4-1.1-.7-1.7-1-.1 0-.2-.1-.2-.1l-1.8-.9c-.1-.1-.2-.1-.4-.2-.6-.3-1.3-.5-1.9-.7-.1 0-.2-.1-.3-.1-.6-.2-1.3-.4-1.9-.6-.1 0-.1 0-.2-.1-.7-.2-1.3-.3-2-.4-.1 0-.3 0-.4-.1-.7-.1-1.4-.2-2-.3h-.3c-.7-.1-1.4-.1-2.1-.1h-.1c-.5 0-1.1 0-1.6.1h-.5c-.4 0-.8.1-1.2.1-.2 0-.4 0-.6.1-.4.1-.8.1-1.2.2-.2 0-.3.1-.5.1-.6.1-1.1.2-1.7.4 0 0-1.1.3-3.1.8C131.7 75.5 115 62 95.1 62c-2.6 0-5.2.2-7.6.7-1.4.3-2.8.6-4.2 1-1.8.5-3.5 1.1-5.1 1.8-13.4 5.8-23.3 18.2-25.5 33.1-.4-.1-.6-.2-.8-.2-.2-.1-.3-.1-.3-.1-.5-.1-.9-.2-1.4-.3-.1 0-.3-.1-.4-.1-.3-.1-.7-.1-1-.2-.2 0-.3 0-.5-.1-.3 0-.7-.1-1-.1h-1.9c-.6 0-1.2 0-1.8.1h-.3c-.6.1-1.2.1-1.7.2-.1 0-.2 0-.3.1-.6.1-1.1.2-1.7.4h-.2c-.5.1-1.1.3-1.6.5-.1 0-.2.1-.3.1-.5.2-1.1.4-1.6.6-.1 0-.2.1-.3.1-.5.2-1 .5-1.5.7-.1 0-.1.1-.2.1-.5.3-.9.5-1.4.8-.1 0-.1.1-.2.1-.5.3-.9.6-1.4 1-.1.1-.2.1-.3.2-.5.3-.9.7-1.3 1.1l-.2.2-1.2 1.2-.1.1c-.4.4-.8.9-1.2 1.3-.1.1-.2.2-.2.3-.4.4-.7.9-1 1.4-.1.1-.1.2-.2.3l-.9 1.5s0 .1-.1.1c-.3.5-.6 1.1-.8 1.6 0 .1-.1.2-.1.3-.2.5-.5 1.1-.7 1.7 0 .1-.1.2-.1.3l-.6 1.8c-.2.8-.4 1.5-.5 2.3s-.2 1.5-.3 2.3c-.1 1.5-.1 3 .1 4.5-6.5 1.8-10.5 2.8-10.5 2.8-6.1 1.6-9.8 7.9-8.1 14 .1.3.2.6.3 1 0 .1.1.2.1.3l.3.6c.1.1.1.2.2.4s.2.3.3.5c.1.1.1.2.2.4s.2.3.3.5l.3.3c.1.1.2.3.3.4l.3.3c.1.1.2.3.4.4l.3.3c.1.1.2.2.4.3l.3.3c.1.1.3.2.4.3.1.1.2.2.4.3.1.1.3.2.4.3.1.1.3.1.4.2.1.1.3.2.4.2.1.1.3.1.4.2.2.1.3.1.5.2.1.1.3.1.4.2.2.1.3.1.5.2.1 0 .3.1.4.1.2 0 .3.1.5.1.1 0 .3.1.4.1.2 0 .3.1.5.1.1 0 .3 0 .4.1h133.9s5.5-.3 8.2-1c15.3-4.2 24.5-20.1 20.4-35.6z"/><path fill="#F9D915" d="M30.5 95.3c-1.9-2.4-3.5-5.1-4.6-8.1L7.8 101.1h-.1c-.4.3-.6.8-.7 1.3-.1.5.1 1 .4 1.5.5.7 1.4.9 2.2.7h.1l18-7.4 3.2-1.3c-.1-.2-.2-.4-.4-.6z"/><path fill="#FFF" d="M169.7 103c.4.5.8 1.1 1.2 1.7-.3-.7-.8-1.2-1.2-1.7zM171.1 104.9c.4.6.8 1.2 1.1 1.8-.3-.6-.7-1.2-1.1-1.8zM166.5 99.5c.5.4 1 .9 1.4 1.4l-1.4-1.4zM168.1 101.1c.5.5.9 1 1.4 1.6-.5-.6-.9-1.1-1.4-1.6zM152 92.5c.7.1 1.4.3 2 .4-.6-.2-1.3-.3-2-.4zM143.7 92.2c.4 0 .8-.1 1.2-.1-.4 0-.8.1-1.2.1zM145.3 92.1c.6 0 1.1-.1 1.6-.1-.5 0-1 0-1.6.1zM29.1 103.6c.4-.4.9-.7 1.3-1.1-.4.4-.9.8-1.3 1.1zM139.7 92.9c.6-.1 1.1-.3 1.7-.4-.6.2-1.1.3-1.7.4zM149.5 92.1c.7.1 1.4.1 2 .3-.6-.1-1.3-.2-2-.3zM141.9 92.5c.4-.1.8-.1 1.2-.2-.4 0-.8.1-1.2.2zM158.7 94.5l1.8.9-1.8-.9zM160.8 95.5zM162.7 96.6c.6.4 1.1.8 1.7 1.2-.6-.4-1.1-.8-1.7-1.2zM172.3 106.8c.4.6.7 1.3 1 1.9-.3-.7-.7-1.3-1-1.9zM164.7 98c.5.4 1.1.8 1.6 1.3-.5-.4-1.1-.8-1.6-1.3zM156.4 93.6c.6.2 1.3.5 1.9.7-.6-.2-1.2-.5-1.9-.7zM154.2 92.9c.6.2 1.3.4 1.9.6-.6-.2-1.2-.4-1.9-.6zM147.1 92c.7 0 1.4 0 2.1.1-.7 0-1.4-.1-2.1-.1zM21.2 117.9c.1-.8.3-1.5.5-2.3-.2.8-.4 1.6-.5 2.3zM35.8 99.4c.5-.2 1.1-.4 1.6-.6-.5.2-1 .4-1.6.6zM21.7 115.6l.6-1.8-.6 1.8zM2.8 142.9c0-.1-.1-.2-.1-.3 0 .1.1.2.1.3zM20.9 120.2c.1-.8.1-1.5.3-2.3-.1.8-.2 1.6-.3 2.3zM39.5 98.2c.6-.1 1.1-.3 1.7-.4-.6.1-1.2.2-1.7.4zM3.8 144.8c-.1-.1-.2-.2-.2-.4 0 .1.1.2.2.4zM3.3 143.9c-.1-.1-.1-.2-.2-.4 0 .2.1.3.2.4zM37.7 98.7c.5-.2 1.1-.3 1.6-.5-.5.2-1.1.3-1.6.5zM27.7 105l1.2-1.2-1.2 1.2zM32.3 101.2c.5-.3.9-.6 1.4-.8-.4.3-.9.5-1.4.8zM4.3 145.6l-.3-.3c.1 0 .2.1.3.3zM26.4 106.4c.4-.5.8-.9 1.2-1.3-.4.4-.8.9-1.2 1.3zM30.7 102.3c.5-.3.9-.7 1.4-1-.4.4-.9.7-1.4 1zM24.1 109.8l.9-1.5-.9 1.5zM34 100.3c.5-.3 1-.5 1.5-.7-.5.2-1 .4-1.5.7zM23.2 111.5c.3-.6.5-1.1.8-1.6-.3.5-.5 1.1-.8 1.6zM22.4 113.5zM25.2 108.1c.3-.5.7-.9 1-1.4-.3.4-.7.9-1 1.4zM173.5 109.1c.3.6.6 1.3.8 2-.3-.7-.6-1.4-.8-2zM10.5 149.8c-.1 0-.3-.1-.4-.1.1 0 .2 0 .4.1zM11.4 150c-.1 0-.3-.1-.4-.1.1 0 .3 0 .4.1zM8.7 149.1c-.1-.1-.3-.1-.4-.2.1.1.3.1.4.2zM13.3 150.2h-.4c.1-.1.3-.1.4 0zM12.4 150.1c-.1 0-.3 0-.4-.1.1.1.2.1.4.1zM174.4 111.4c.2.7.5 1.4.7 2.2-.2-.8-.5-1.5-.7-2.2zM7.9 148.7c-.1-.1-.3-.1-.4-.2.1 0 .2.1.4.2zM9.6 149.5c-.1-.1-.3-.1-.4-.2.1.1.2.1.4.2zM5.6 147l-.3-.3.3.3zM6.3 147.6l-.3-.3.3.3zM4.9 146.3l-.3-.3.3.3zM7.1 148.2c-.1-.1-.2-.2-.4-.3.1.1.2.2.4.3zM51.8 98.3c-.2-.1-.3-.1-.3-.1-.5-.1-.9-.2-1.4-.3.5.1.9.2 1.4.3 0 0 .1.1.3.1zM47.2 97.5c.3 0 .7.1 1 .1-.3 0-.7 0-1-.1zM51.8 98.3c.2.1.5.1.8.2-.3 0-.6-.1-.8-.2zM45.4 97.5h1.4-1.4zM41.5 97.8c.6-.1 1.1-.2 1.7-.2-.5 0-1.1.1-1.7.2zM48.7 97.7c.3 0 .7.1 1 .2-.3-.1-.7-.2-1-.2zM43.6 97.5c.6 0 1.2-.1 1.8-.1-.7.1-1.3.1-1.8.1z"/><path fill="#D3D3D3" d="M197.4 94.2c-2.4-8.8-11.3-14-20.1-11.7 0 0-.6.2-1.8.5-2.8-10.4-12.3-18.1-23.6-18.1-7.5 0-14.1 3.4-18.6 8.7 3.2 3.7 5.8 7.9 7.9 12.4 1.6-.2 3.3-.3 5-.3 16.9 0 31.8 11.4 36.2 27.8l.3 1.5c1-.1 2.2-.2 3-.4 8.9-2.6 14.1-11.6 11.7-20.4z"/></svg>