<svg xmlns="http://www.w3.org/2000/svg" viewBox="0 0 200 200" xml:space="preserve"><path fill="#DEDDDD" d="M35.9 129.9c-6.5 0-12.3-4.4-14-10.7-1-3.7-.5-7.6 1.4-11 1.9-3.3 5.1-5.7 8.8-6.7.6-.2 2.4-.7 8.1-2.2-.1-2.6.3-5.1.9-7.6.5-1.8 1.2-3.5 2-5.1-4.6-23.2.8-46 15.2-60.7-5.4 1.7-10.8 3.9-15.9 6.9C6.2 53.6-6.3 100 14.7 136.3c21 36.3 67.4 48.8 103.7 27.8 5.1-3 9.8-6.4 13.9-10.3-22.5 5.7-48.4-3.6-67-24H36.7c-.2 0-.5.1-.8.1z"/><path fill="#D3D3D3" d="M194.6 91c-3.1-11.4-13.4-19.3-25.1-19.3-2.2 0-4.4.3-6.5.8h-.2c-.4.1-1.4.4-2.9.8l-2.9.8-.8-2.9c-4.7-17.4-20.5-29.6-38.6-29.6-19.6 0-36.6 14.6-39.5 34l-.5 3.4-4.4-1.2c-1.8-.5-3.6-.7-5.4-.7-9.7 0-18.3 6.6-20.8 16-.4 1.6-.6 3.2-.7 4.8 0 1.1 0 2.1.1 3.2l.3 2.6-2.5.7c-5.7 1.5-9.4 2.5-10.3 2.8l-.2.1c-2.2.6-4 2-5.1 3.9-1.1 2-1.4 4.2-.8 6.4 1 3.9 4.7 6.5 8.7 6.3h132.3c1.5-.1 5.6-.4 7.5-.9 13.8-3.8 22-18.1 18.3-32z"/></svg>