<svg xmlns="http://www.w3.org/2000/svg" viewBox="0 0 200 200" xml:space="preserve"><path fill="none" d="M19.5 148.5c-.1-.1-.3-.2-.4-.3.1.1.2.2.4.3zM18.7 147.9c-.1-.1-.3-.2-.4-.3.1.1.2.2.4.3zM17.9 147.3c-.1-.1-.3-.2-.4-.3.2.1.3.2.4.3zM16.6 146c-.1-.1-.2-.3-.3-.4.1.1.2.2.3.4zM16 145.2c-.1-.1-.2-.3-.3-.5.1.2.2.4.3.5zM17.2 146.7c-.1-.1-.2-.3-.4-.4.2.1.3.3.4.4zM22 149.6c-.2-.1-.3-.1-.5-.2.2.1.4.2.5.2zM20.3 148.9c-.2-.1-.3-.2-.4-.2.1.1.2.1.4.2zM42.4 102.6c.1-.1.2-.1.3-.2-.1 0-.2.1-.3.2zM21.1 149.3c-.2-.1-.3-.1-.5-.2.2.1.4.1.5.2zM38.2 106.7c.1-.1.2-.2.2-.3-.1.1-.1.2-.2.3zM15.5 144.4c-.1-.2-.2-.3-.3-.5.1.2.2.3.3.5zM37 108.3c.1-.1.1-.2.2-.3-.1.2-.2.3-.2.3zM40.9 103.8l.2-.2c-.1.1-.1.2-.2.2zM39.6 105.1l.1-.1c-.1 0-.1.1-.1.1zM36 109.9zM23.9 150c-.2 0-.3 0-.5-.1.2.1.3.1.5.1zM14.7 142.6zM15 143.5l-.3-.6c.2.2.3.4.3.6zM34.2 113.8c0-.1.1-.2.1-.3 0 .1 0 .2-.1.3zM35 111.9c0-.1.1-.2.1-.3 0 0 0 .1-.1.3zM23 149.9c-.2 0-.3-.1-.5-.1.1 0 .3 0 .5.1zM166 92.9c.1 0 .1 0 .2.1-.1-.1-.1-.1-.2-.1zM168.1 93.5c.1 0 .2.1.3.1-.1 0-.2-.1-.3-.1zM170.3 94.3c.1.1.3.1.4.2-.2-.1-.3-.1-.4-.2zM163.6 92.4c.1 0 .3 0 .4.1-.2-.1-.3-.1-.4-.1zM172.5 95.4c.1 0 .2.1.2.1s-.1-.1-.2-.1zM155.1 92.3c.2 0 .4-.1.6-.1-.3 0-.4.1-.6.1zM153.4 92.6c.2 0 .3-.1.5-.1-.2 0-.4 0-.5.1zM174.4 96.5c.1 0 .1.1.2.1 0 0-.1-.1-.2-.1zM156.8 92.1h.5-.5zM159 92h.1-.1zM176.3 97.8c.1.1.2.2.3.2 0 0-.1-.1-.3-.2zM186.2 111c0 .1.1.2.1.4 0-.1 0-.2-.1-.4zM185.2 108.7c.1.1.1.2.2.4 0-.2-.1-.3-.2-.4zM184.2 106.7zM25.5 150.2h.7-.9.2zM178.2 99.3c.1.1.2.1.2.2l-.2-.2zM182.9 104.6c.1.1.1.2.2.3-.1-.1-.1-.2-.2-.3zM24.9 150.1h-.5.5zM179.9 100.9l.1.1-.1-.1zM181.4 102.6l.3.3-.3-.3zM161.2 92.1h.3-.3zM47.5 99.6c.1 0 .2-.1.3-.1-.1 0-.2 0-.3.1zM45.7 100.4c.1 0 .1-.1.2-.1 0 0-.1.1-.2.1zM51.3 98.2h.2-.2zM53.2 97.8zM49.4 98.8c.1 0 .2-.1.3-.1-.1 0-.2.1-.3.1zM44.1 101.4c.1 0 .1-.1.2-.1-.1 0-.1 0-.2.1z"/><path fill="#DDC72D" d="M61.7 97.8c.1 0 .3 0 .4.1-.2 0-.3 0-.4-.1zM57.4 97.5c-.1 0-.1 0 0 0-.1 0-.1 0 0 0zM58.8 97.5h.4-.4z"/><path fill="#F9D915" d="M60 91.6c2.6-9.1 7.8-17.3 15-23.6 3.6-3.2 7.7-5.7 12-7.7-4.7-5.9-11.9-9.6-20-9.6-14.1 0-25.6 11.5-25.6 25.6 0 6.4 2.4 12.3 6.3 16.8 3.1-1 6.3-1.6 9.7-1.6.8 0 1.7 0 2.6.1z"/><path fill="#DDC72D" d="M60.2 97.6c.2 0 .3 0 .5.1-.2 0-.4-.1-.5-.1zM55.2 97.6h.3c-.1-.1-.2-.1-.3 0zM53.5 97.8c-.1 0-.2 0-.3.1.1-.1.2-.1.3-.1z"/><path fill="#F9D915" d="m38.7 31 8.7 21.1c2.5-2.1 5.4-3.7 8.6-4.9L42.1 29.1c-.6-.8-1.9-1-2.7-.3-.7.5-.9 1.4-.7 2.2 0-.1 0 0 0 0zM72 45.6 69.1 23v-.1c-.2-1-1.1-1.8-2.2-1.7-.8.1-1.5.7-1.7 1.5v.1l-3 22.6c1.6-.3 3.2-.4 4.9-.4 1.6.2 3.2.4 4.9.6zM13.5 78.1h.1l22.6 3c-.3-1.6-.4-3.2-.4-4.9 0-1.7.1-3.4.4-5l-22.6 2.9h-.1c-1 .2-1.8 1.1-1.6 2.2.2.9.8 1.6 1.6 1.8zM95.4 31.2s0-.1 0 0c.2-.5.2-1 0-1.5s-.6-.9-1.1-1.1c-.8-.3-1.7-.1-2.2.5l-.1.1-14 18.1c3.1 1.2 6 2.9 8.5 5l8.9-21.1zM19.9 51.2l18.1 14c1.2-3.1 2.9-6 5-8.5l-21.1-8.8h-.1c-1-.4-2.1.1-2.5 1.1-.3.8-.1 1.7.5 2.2 0-.1.1 0 .1 0z"/><path fill="#D3D3D3" d="M187 113.6c-.2-.7-.4-1.4-.7-2.2 0-.1-.1-.3-.1-.4-.2-.7-.5-1.3-.8-2-.1-.1-.1-.2-.2-.4-.3-.7-.6-1.3-1-1.9 0 0 0-.1-.1-.1-.3-.6-.7-1.2-1.1-1.8-.1-.1-.1-.2-.2-.3-.4-.6-.8-1.1-1.2-1.7l-.3-.3c-.4-.5-.9-1.1-1.4-1.6l-.1-.1-1.4-1.4c-.1-.1-.2-.1-.2-.2-.5-.5-1-.9-1.6-1.3-.1-.1-.2-.2-.3-.2-.5-.4-1.1-.8-1.7-1.2-.1 0-.1-.1-.2-.1-.6-.4-1.1-.7-1.7-1-.1 0-.2-.1-.2-.1l-1.8-.9c-.1-.1-.2-.1-.4-.2-.6-.3-1.3-.5-1.9-.7-.1 0-.2-.1-.3-.1-.6-.2-1.3-.4-1.9-.6-.1 0-.1 0-.2-.1-.7-.2-1.3-.3-2-.4-.1 0-.3 0-.4-.1-.7-.1-1.4-.2-2-.3h-.3c-.7-.1-1.4-.1-2.1-.1h-.1c-.5 0-1.1 0-1.6.1h-.5c-.4 0-.8.1-1.2.1-.2 0-.4 0-.6.1-.4.1-.8.1-1.2.2-.2 0-.3.1-.5.1-.6.1-1.1.2-1.7.4 0 0-1.1.3-3.1.8-5-18.1-21.7-31.6-41.6-31.6-2.6 0-5.2.2-7.6.7-1.4.3-2.8.6-4.2 1-1.8.5-3.5 1.1-5.1 1.8-13.4 5.8-23.3 18.2-25.5 33.1-.4-.1-.6-.2-.8-.2-.2-.1-.3-.1-.3-.1-.5-.1-.9-.2-1.4-.3-.1 0-.3-.1-.4-.1-.3-.1-.7-.1-1-.2-.2 0-.3 0-.5-.1-.3 0-.7-.1-1-.1h-1.9c-.6 0-1.2 0-1.8.1h-.3c-.6.1-1.2.1-1.7.2-.1 0-.2 0-.3.1-.6.1-1.1.2-1.7.4h-.2c-.5.1-1.1.3-1.6.5-.1 0-.2.1-.3.1-.5.2-1.1.4-1.6.6-.1 0-.2.1-.3.1-.5.2-1 .5-1.5.7-.1 0-.1.1-.2.1-.5.3-.9.5-1.4.8-.1 0-.1.1-.2.1-.5.3-.9.6-1.4 1-.1.1-.2.1-.3.2-.5.3-.9.7-1.3 1.1l-.2.2-1.2 1.2-.1.1c-.4.4-.8.9-1.2 1.3-.1.1-.2.2-.2.3-.4.4-.7.9-1 1.4-.1.1-.1.2-.2.3l-.9 1.5s0 .1-.1.1c-.3.5-.6 1.1-.8 1.6 0 .1-.1.2-.1.3-.2.5-.5 1.1-.7 1.7 0 .1-.1.2-.1.3l-.6 1.8c-.2.8-.4 1.5-.5 2.3s-.2 1.5-.3 2.3c-.1 1.5-.1 3 .1 4.5-6.5 1.8-10.5 2.8-10.5 2.8-6.1 1.6-9.8 7.9-8.1 14 .1.3.2.6.3 1 0 .1.1.2.1.3l.3.6c.1.1.1.2.2.4s.2.3.3.5c.1.1.1.2.2.4s.2.3.3.5l.3.3c.1.1.2.3.3.4l.3.3c.1.1.2.3.4.4l.3.3c.1.1.2.2.4.3l.3.3c.1.1.3.2.4.3.1.1.2.2.4.3.1.1.3.2.4.3.1.1.3.1.4.2.1.1.3.2.4.2.1.1.3.1.4.2.2.1.3.1.5.2.1.1.3.1.4.2.2.1.3.1.5.2.1 0 .3.1.4.1.2 0 .3.1.5.1.1 0 .3.1.4.1.2 0 .3.1.5.1.1 0 .3 0 .4.1h133.9s5.5-.3 8.2-1c15.3-4.2 24.5-20.1 20.3-35.6z"/><path fill="#F9D915" d="M42.5 95.3c-1.9-2.4-3.5-5.1-4.6-8.1l-18.2 13.9h-.1c-.4.3-.6.8-.7 1.3-.1.5.1 1 .4 1.5.5.7 1.4.9 2.2.7h.1l18-7.4 3.2-1.3-.3-.6z"/><path fill="#FFF" d="M181.7 103c.4.5.8 1.1 1.2 1.7-.4-.7-.8-1.2-1.2-1.7zM183.1 104.9c.4.6.8 1.2 1.1 1.8-.3-.6-.7-1.2-1.1-1.8zM178.5 99.5c.5.4 1 .9 1.4 1.4l-1.4-1.4zM180 101.1c.5.5.9 1 1.4 1.6-.4-.6-.9-1.1-1.4-1.6zM164 92.5c.7.1 1.4.3 2 .4-.7-.2-1.4-.3-2-.4zM155.6 92.2c.4 0 .8-.1 1.2-.1-.4 0-.8.1-1.2.1zM157.3 92.1c.6 0 1.1-.1 1.6-.1-.5 0-1 0-1.6.1zM41.1 103.6c.4-.4.9-.7 1.3-1.1-.4.4-.9.8-1.3 1.1zM151.7 92.9c.6-.1 1.1-.3 1.7-.4-.6.2-1.1.3-1.7.4zM161.5 92.1c.7.1 1.4.1 2 .3-.6-.1-1.3-.2-2-.3zM153.9 92.5c.4-.1.8-.1 1.2-.2-.4 0-.8.1-1.2.2zM170.7 94.5l1.8.9-1.8-.9zM172.7 95.5c.6.3 1.1.6 1.7 1-.5-.4-1.1-.7-1.7-1zM174.7 96.6c.6.4 1.1.8 1.7 1.2-.6-.4-1.2-.8-1.7-1.2zM184.3 106.8c.4.6.7 1.3 1 1.9-.4-.7-.7-1.3-1-1.9zM176.7 98c.5.4 1.1.8 1.6 1.3-.6-.4-1.1-.8-1.6-1.3zM168.4 93.6c.6.2 1.3.5 1.9.7-.6-.2-1.3-.5-1.9-.7zM166.2 92.9c.6.2 1.3.4 1.9.6-.6-.2-1.3-.4-1.9-.6zM159.1 92c.7 0 1.4 0 2.1.1-.7 0-1.4-.1-2.1-.1zM33.2 117.9c.1-.8.3-1.5.5-2.3-.2.8-.4 1.6-.5 2.3zM47.8 99.4c.5-.2 1.1-.4 1.6-.6-.5.2-1.1.4-1.6.6zM33.7 115.6l.6-1.8c-.3.6-.5 1.2-.6 1.8zM14.8 142.9c0-.1-.1-.2-.1-.3 0 .1.1.2.1.3zM32.9 120.2c.1-.8.1-1.5.3-2.3-.2.8-.2 1.6-.3 2.3zM51.4 98.2c.6-.1 1.1-.3 1.7-.4-.5.1-1.1.2-1.7.4zM15.7 144.8c-.1-.1-.2-.2-.2-.4.1.1.1.2.2.4zM15.2 143.9c-.1-.1-.1-.2-.2-.4.1.2.2.3.2.4zM49.7 98.7c.5-.2 1.1-.3 1.6-.5-.6.2-1.1.3-1.6.5zM39.7 105l1.2-1.2-1.2 1.2zM44.3 101.2c.5-.3.9-.6 1.4-.8-.5.3-.9.5-1.4.8zM16.3 145.6l-.3-.3c.1 0 .2.1.3.3zM38.4 106.4c.4-.5.8-.9 1.2-1.3-.4.4-.8.9-1.2 1.3zM42.7 102.3c.5-.3.9-.7 1.4-1-.5.4-.9.7-1.4 1zM36.1 109.8l.9-1.5c-.3.5-.7 1-.9 1.5zM45.9 100.3c.5-.3 1-.5 1.5-.7-.4.2-1 .4-1.5.7zM35.2 111.5c.3-.6.5-1.1.8-1.6-.3.5-.6 1.1-.8 1.6zM34.3 113.5c.2-.6.4-1.1.7-1.7-.2.6-.4 1.1-.7 1.7zM37.1 108.1c.3-.5.7-.9 1-1.4-.3.4-.6.9-1 1.4zM185.4 109.1zM22.5 149.8c-.1 0-.3-.1-.4-.1.1 0 .2 0 .4.1zM23.4 150c-.1 0-.3-.1-.4-.1.1 0 .2 0 .4.1zM20.7 149.1c-.1-.1-.3-.1-.4-.2.1.1.2.1.4.2zM25.3 150.2h-.4c.1-.1.3-.1.4 0zM24.3 150.1c-.1 0-.3 0-.4-.1.1.1.3.1.4.1zM186.4 111.4c.2.7.5 1.4.7 2.2-.3-.8-.5-1.5-.7-2.2zM19.8 148.7c-.1-.1-.3-.1-.4-.2.2 0 .3.1.4.2zM21.6 149.5c-.1-.1-.3-.1-.4-.2.1.1.2.1.4.2zM17.6 147l-.3-.3c0 .1.1.2.3.3zM18.3 147.6l-.3-.3c0 .1.2.2.3.3zM16.9 146.3l-.3-.3.3.3zM19 148.2c-.1-.1-.2-.2-.4-.3.2.1.3.2.4.3zM63.8 98.3c-.2-.1-.3-.1-.3-.1-.5-.1-.9-.2-1.4-.3.5.1.9.2 1.4.3 0 0 .1.1.3.1zM59.2 97.5c.3 0 .7.1 1 .1-.4 0-.7 0-1-.1zM63.8 98.3c.2.1.5.1.8.2-.3 0-.6-.1-.8-.2zM57.4 97.5h1.4-1.4zM53.5 97.8c.6-.1 1.1-.2 1.7-.2-.6 0-1.1.1-1.7.2zM60.7 97.7c.3 0 .7.1 1 .2-.4-.1-.7-.2-1-.2zM55.5 97.5c.6 0 1.2-.1 1.8-.1-.6.1-1.2.1-1.8.1z"/></svg>