<svg xmlns="http://www.w3.org/2000/svg" viewBox="0 0 200 200" xml:space="preserve"><g fill="#D3D3D3"><path d="m169.6 38.1-30-6.1-6.1-30c-.1-.5-.5-1-1.1-1.1-.7-.1-1.3.4-1.4 1.1l-6 30-30 6.1c-.5.1-1 .5-1.1 1.1-.1.7.4 1.3 1.1 1.4l30 6.1 6.1 30c.1.5.5 1 1.1 1.1.7.1 1.3-.4 1.4-1.1l6.1-30 30-6.1c.5-.1 1-.5 1.1-1.1-.1-.7-.5-1.3-1.2-1.4zM66.1 120.2C42.6 79.5 46.2 32.1 72.3 5.3c-7.1 2.2-14 5.1-20.7 9C4.2 41.6-12 102.2 15.3 149.5c27.3 47.3 87.9 63.6 135.2 36.2 6.7-3.9 12.7-8.4 18.1-13.4-36.2 9.2-79.1-11.4-102.5-52.1zM197.2 105.9l-21.3-4.4-4.4-21.3c0-.4-.3-.7-.8-.8-.5-.1-.9.3-1 .8l-4.4 21.3-21.3 4.4c-.4.1-.7.4-.8.8-.1.5.3.9.8 1l21.3 4.4 4.4 21.3c.1.4.3.7.8.8.5.1.9-.3 1-.8l4.4-21.3 21.3-4.4c.4-.1.7-.4.8-.8 0-.5-.3-1-.8-1z"/></g></svg>