<svg xmlns="http://www.w3.org/2000/svg" viewBox="0 0 200 200" xml:space="preserve"><path fill="none" d="M143.4 92.2c.4.1.8.1 1.2.2-.4 0-.8-.1-1.2-.2zM154.2 98.7c.2.3.4.5.6.8-.3-.3-.4-.5-.6-.8zM153.1 97.4c.3.3.5.6.8.9-.3-.3-.6-.6-.8-.9zM141.9 92.1c.3 0 .7.1 1 .1-.3-.1-.6-.1-1-.1zM74.3 98.4c.2-.2.5-.4.7-.6-.3.2-.5.4-.7.6zM155 100c.2.3.3.6.5.8-.2-.2-.3-.5-.5-.8zM155.8 101.3c.2.3.3.6.4 1-.2-.3-.3-.6-.4-1zM73.1 99.5l.9-.9-.9.9zM149.4 94.4c.3.2.5.3.8.5-.2-.1-.5-.3-.8-.5zM78.7 95.9c.4-.1.8-.3 1.2-.4-.4.1-.8.2-1.2.4zM148.1 93.7c.3.1.6.3.8.4-.2-.1-.5-.3-.8-.4zM150.7 95.2c.3.2.6.4.8.7-.3-.2-.5-.5-.8-.7zM146.7 93.1c.3.1.7.3 1 .4-.4-.2-.7-.3-1-.4zM144.9 92.5c.5.1.9.3 1.4.4-.5-.1-.9-.3-1.4-.4zM151.8 96.2c.4.3.7.7 1.1 1-.4-.4-.7-.7-1.1-1zM84 95.1c.4 0 .8.1 1.2.1-.4 0-.8 0-1.2-.1zM76.4 96.9c.2-.1.5-.3.7-.4-.2.2-.4.3-.7.4zM140.9 92h-.7 1.2-.5zM83.2 95.1h-.4 1-.6zM77.5 96.3c.3-.1.6-.2.8-.3-.2.1-.5.2-.8.3zM80.1 95.5c.3-.1.7-.1 1-.2-.3 0-.7.1-1 .2zM81.5 95.2c.3 0 .6-.1.8-.1-.2.1-.5.1-.8.1zM138.6 92.2c.5-.1 1-.1 1.4-.1-.5 0-1 0-1.4.1zM73 99.6c-.2.2-.4.5-.6.7.1-.2.4-.4.6-.7zM75.3 97.6c.2-.2.4-.3.7-.4-.2.1-.4.2-.7.4zM156.4 102.8c.2.5.3 1 .5 1.5-.2-.6-.4-1.1-.5-1.5zM136.8 92.6l1.5-.3c-.5 0-1 .1-1.5.3zM90.1 87.5c-1.4 2.5-2.3 5.3-2.8 8.2-.1 0-.2-.1-.3-.1.1 0 .2 0 .3.1.5-2.9 1.5-5.7 2.8-8.2zM85.5 95.3c.4.1.8.1 1.2.3l-1.2-.3z"/><path fill="#DEDDDD" d="M70.9 102.6c.1-.2.3-.5.4-.7-.1.2-.3.4-.4.7zM62.2 124.3c-.2-.1-.3-.2-.5-.3.1.1.3.2.5.3zM71.6 101.4c.2-.2.3-.5.5-.7-.2.3-.4.5-.5.7zM61.3 123.8c-.2-.1-.3-.3-.5-.4.2.1.3.2.5.4zM65.1 125h.4-.8.4zM63.2 124.7c-.2-.1-.4-.1-.5-.2.1.1.3.2.5.2zM64.2 125c-.2 0-.4-.1-.6-.1.2 0 .4 0 .6.1zM60.5 123.1c-.2-.2-.3-.3-.4-.5.1.1.2.3.4.5zM70.3 103.8c.1-.3.2-.5.4-.8-.1.3-.2.5-.4.8zM72.3 100.3c0 .1 0 .1 0 0 0 .1 0 .1 0 0 .1.1.1 0 0 0zM69.8 105.4c.1-.4.3-.8.4-1.3-.2.5-.3.9-.4 1.3z"/><path fill="#DEDDDD" d="M89.4 131H65.1c-5.6 0-10.6-3.8-12.1-9.3-.9-3.2-.4-6.6 1.3-9.5 1.7-2.9 4.4-5 7.6-5.8.3-.1.9-.2 1.7-.5.1-.7.3-1.4.4-2.1 1.1-3.9 3.3-7.3 6.2-9.9-10.7-34-4.4-69.1 16.7-90.7-7.1 2.2-14 5.1-20.7 9C18.9 39.5 2.6 100 30 147.3c27.3 47.3 87.9 63.6 135.2 36.2 6.7-3.9 12.7-8.4 18.1-13.4-32.1 8.2-69.5-7.1-93.9-39.1z"/><path fill="#DEDDDD" d="M59.2 121.3c-.2-.3-.3-.7-.4-1.1.1.4.3.7.4 1.1zM59.8 122.2c-.1-.2-.3-.4-.4-.6.1.2.2.4.4.6z"/><path fill="#D3D3D3" d="M156.8 104.3c-.1-.5-.3-1-.5-1.5-.1-.2-.1-.3-.2-.5-.1-.3-.3-.6-.4-1-.1-.2-.2-.3-.3-.5-.2-.3-.3-.6-.5-.8-.1-.2-.2-.3-.3-.5-.2-.3-.4-.5-.6-.8-.1-.1-.2-.3-.3-.4-.2-.3-.5-.6-.8-.9l-.2-.2c-.3-.4-.7-.7-1.1-1l-.3-.3c-.3-.2-.5-.4-.8-.7-.1-.1-.3-.2-.4-.3-.3-.2-.5-.3-.8-.5-.2-.1-.3-.2-.5-.3-.3-.2-.6-.3-.8-.4-.2-.1-.3-.2-.5-.2-.3-.1-.7-.3-1-.4-.1 0-.2-.1-.4-.1-.5-.2-.9-.3-1.4-.4-.1 0-.2 0-.3-.1-.4-.1-.8-.2-1.2-.2-.2 0-.3 0-.5-.1-.3 0-.6-.1-1-.1H139.7c-.5 0-1 .1-1.4.1-.1 0-.2 0-.3.1l-1.5.3s-.6.2-1.8.5c-2.5-10.5-12-18.1-23.2-18.1-9.2 0-17.2 5.1-21.3 12.6-1.4 2.5-2.3 5.3-2.8 8.2-.1 0-.2-.1-.3-.1-.2-.1-.4-.1-.4-.1l-1.2-.3h-.3c-.4-.1-.8-.1-1.2-.1h-1.7c-.3 0-.6 0-.8.1-.1 0-.3 0-.4.1-.3.1-.7.1-1 .2h-.2c-.4.1-.8.2-1.2.4-.1 0-.2.1-.3.1-.3.1-.6.2-.8.3-.1.1-.3.1-.4.2-.2.1-.5.2-.7.4-.1.1-.3.2-.4.2-.2.1-.5.3-.7.4-.1.1-.2.2-.4.3-.2.2-.5.4-.7.6-.1.1-.2.1-.3.2l-.9.9-.2.2c-.2.2-.4.5-.6.7l-.1.1-.3.3c-.2.2-.3.5-.5.7-.1.1-.2.3-.3.4-.1.2-.3.5-.4.7-.1.1-.1.3-.2.4-.1.3-.2.5-.4.8-.1.1-.1.3-.2.4-.2.4-.3.8-.4 1.3-.5 1.7-.6 3.5-.4 5.2-3.7 1-6 1.6-6 1.6-3.5.9-5.5 4.5-4.6 8 .1.4.2.7.4 1.1.1.1.1.2.2.3.1.2.2.4.4.6l.3.3c.1.2.3.3.4.5l.3.3c.2.1.3.3.5.4.1.1.3.2.4.3.2.1.3.2.5.3.1.1.3.1.4.2.2.1.4.2.5.2.2 0 .3.1.5.1s.4.1.6.1H141.3c.2 0 .4 0 .7-.1.2 0 .5 0 .8-.1.3 0 .5-.1.8-.1.1 0 .3 0 .4-.1.2 0 .5-.1.7-.1.1 0 .2 0 .3-.1 9-2.4 14.2-11.4 11.8-20.2z"/><path fill="#FFF" d="M78.4 96c.1 0 .2-.1.3-.1-.1 0-.2.1-.3.1zM75 97.8c.1-.1.2-.2.4-.3-.2.2-.3.2-.4.3zM74 98.6c.1-.1.2-.1.3-.2-.1.1-.2.1-.3.2zM73 99.6l.2-.2-.2.2zM77.1 96.5c.1-.1.3-.1.4-.2-.1.1-.2.2-.4.2zM76 97.1c.1-.1.3-.2.4-.2-.1.1-.2.2-.4.2zM151.5 95.9l.3.3-.3-.3zM155.5 100.8c.1.2.2.3.3.5-.1-.1-.2-.3-.3-.5zM152.9 97.2l.2.2-.2-.2zM147.7 93.5c.2.1.3.2.5.2-.2-.1-.4-.2-.5-.2zM153.8 98.3c.1.1.2.3.3.4 0-.1-.1-.3-.3-.4zM149 94.1c.2.1.3.2.5.3-.2-.1-.4-.2-.5-.3zM150.2 94.9c.1.1.3.2.4.3-.1-.1-.2-.2-.4-.3zM154.7 99.5c.1.2.2.3.3.5-.1-.2-.2-.3-.3-.5zM141.6 125h-.6.6zM142.3 124.9c-.2 0-.5 0-.7.1.2-.1.4-.1.7-.1zM144.9 124.5c-.2 0-.5.1-.7.1.2 0 .4 0 .7-.1zM143.8 124.7c-.3 0-.5.1-.8.1.3 0 .5 0 .8-.1zM156.2 102.3c.1.2.1.3.2.5-.1-.2-.2-.3-.2-.5zM81.1 95.3c.1 0 .3 0 .4-.1-.1 0-.3.1-.4.1zM138.2 92.3c.1 0 .2 0 .3-.1 0 0-.1 0-.3.1zM140 92.1h.2c-.1-.1-.1-.1-.2 0zM85.2 95.3h.3-.3zM82.4 95.2h.5c-.2-.1-.4-.1-.5 0zM141.4 92h.6c-.2.1-.4 0-.6 0zM79.9 95.5h.2-.2zM83.8 95.1h.2-.2zM144.6 92.4c.1 0 .2 0 .3.1-.1 0-.2 0-.3-.1zM146.3 92.9c.1 0 .3.1.4.1-.2 0-.3 0-.4-.1zM142.9 92.2c.2 0 .3 0 .5.1-.1-.1-.3-.1-.5-.1zM71.3 101.8c.1-.1.2-.3.3-.4-.1.2-.2.3-.3.4zM70.7 103c.1-.1.1-.3.2-.4-.1.1-.1.2-.2.4zM63.6 124.8c-.2 0-.3-.1-.5-.1.2.1.4.1.5.1zM64.7 125h-.5.5zM72 100.8l.3-.3c-.1 0-.2.1-.3.3zM60 122.6l-.3-.3c.1 0 .2.2.3.3zM62.6 124.5c-.1-.1-.3-.1-.4-.2.1.1.3.2.4.2zM60.8 123.4l-.3-.3.3.3zM59.4 121.6c-.1-.1-.1-.2-.2-.3.1.1.1.2.2.3zM70.2 104.2c0-.1.1-.3.2-.4-.1.1-.2.3-.2.4zM61.7 124c-.1-.1-.3-.2-.4-.3.1.2.2.2.4.3z"/></svg>