<svg xmlns="http://www.w3.org/2000/svg" viewBox="0 0 200 200" xml:space="preserve"><path fill="none" d="M175 78.8h-.6 1.2-.6z"/><path fill="#F9D915" d="M99.5 117.8h-1c-.2 0-.5 0-.9-.1-.5-.1-.9-.2-1.1-.2h-.1c-.2 0-.5-.1-.8-.2-.4-.1-.8-.3-1.1-.4h-.1c-.2-.1-.5-.2-.8-.4-.4-.2-.7-.4-.9-.5-.2-.1-.4-.3-.7-.5-.4-.3-.7-.5-.8-.7l-.1-.1c-.1-.1-.4-.3-.6-.6-.3-.4-.6-.7-.8-.9l-.1-.1c-.1-.1-.3-.4-.5-.7-.3-.4-.5-.8-.7-1.1-.1-.1-.2-.4-.4-.7-.3-.7-.6-1.3-.7-2-.9-3.2-.4-6.6 1.3-9.5 1.7-2.9 4.4-5 7.6-5.8.3-.1.9-.2 1.7-.5v-.2c.1-.6.2-1.3.4-1.9.2-.6.3-1.2.6-1.8.1-.2.1-.3.2-.5v-.1c.2-.4.3-.8.5-1.2l.3-.6c.2-.4.4-.7.6-1 .1-.2.2-.4.4-.6.2-.3.4-.6.7-1l.1-.1c.1-.1.2-.3.3-.4.3-.3.6-.7.9-1.1l.3-.3c.4-.4.8-.8 1.3-1.2.1-.1.2-.2.4-.3.4-.3.7-.6 1-.8.1-.1.3-.2.4-.3h.1c.3-.2.7-.4 1-.6l.6-.3c.3-.2.7-.4 1-.5h.1c.2-.1.3-.2.5-.2.4-.2.8-.3 1.2-.5.1-.1.3-.1.4-.2.6-.2 1.1-.4 1.7-.5.1 0 .3-.1.4-.1.5-.1.9-.2 1.4-.3.2 0 .4 0 .5-.1h.1c.4-.1.8-.1 1.2-.1H117.4c.1-.3.2-.6.4-1 .6-1.6 1.4-3.1 2.3-4.5-7-6.2-16.2-10-26.3-10-21.9 0-39.6 17.7-39.6 39.6 0 21.9 17.7 39.6 39.6 39.6 15.4 0 28.8-8.9 35.3-21.8H99.8c-.1-.1-.2-.1-.3-.1z"/><path fill="#DDC72D" d="M99.5 111.8h.2-.8.6zM117.5 81.9h-.5 1-.5z"/><path fill="#F9D915" d="m49.8 30.1 13.4 32.7c3.9-3.2 8.4-5.8 13.2-7.6L55 27.1l-.1-.1c-1-1.2-2.9-1.5-4.2-.5-1 .8-1.4 2.1-1 3.4 0 0 0 .1.1.2zM101.1 52.6l-4.5-35v-.1c-.2-1.6-1.7-2.8-3.4-2.6-1.3.2-2.3 1.1-2.6 2.4 0 .1 0 .1-.1.2l-4.7 35c2.5-.4 5-.6 7.5-.6 2.7.1 5.3.3 7.8.7zM45.4 100c0-2.6.2-5.2.6-7.7l-35 4.5h-.1c-1.6.3-2.8 1.8-2.5 3.4.2 1.3 1.1 2.3 2.4 2.6.1 0 .1 0 .2.1l35 4.7c-.4-2.5-.6-5-.6-7.6zM137.4 30.3s0-.1 0 0c.3-.8.3-1.6 0-2.3-.3-.8-.9-1.3-1.6-1.7-1.2-.5-2.6-.2-3.4.8-.1 0-.1.1-.2.2l-21.6 27.9c4.8 1.9 9.3 4.5 13.2 7.7l13.6-32.6zM20.6 61.3l28 21.6c1.9-4.8 4.5-9.3 7.7-13.2L23.7 56h-.1c-1.5-.6-3.3.2-3.9 1.7-.5 1.2-.2 2.6.8 3.4 0 .1.1.1.1.2zM137 169.9l-13.4-32.7c-3.9 3.2-8.4 5.8-13.2 7.6l21.4 28.1s0 .1.1.1c1 1.2 2.9 1.4 4.2.5 1-.8 1.4-2.1 1-3.4 0 0 0-.1-.1-.2zM48.5 117l-28.1 21.4s-.1 0-.1.1c-.6.5-1 1.2-1.1 1.9-.1.8.1 1.6.6 2.3.8 1 2.2 1.4 3.4 1 .1 0 .1 0 .2-.1l32.7-13.4c-3.1-3.9-5.7-8.4-7.6-13.2zM85.7 147.3l4.5 35v.1c.2 1.5 1.5 2.6 3 2.6h.4c1.3-.2 2.3-1.1 2.6-2.4 0-.1 0-.1.1-.2l4.7-35c-2.5.4-5 .6-7.5.6-2.7 0-5.3-.2-7.8-.7zM49.4 169.7s0 .1 0 0c-.3.8-.3 1.6 0 2.3.3.8.9 1.3 1.6 1.7 1.2.5 2.6.2 3.4-.8.1 0 .1-.1.1-.1l21.6-28c-4.8-1.9-9.3-4.5-13.2-7.7l-13.5 32.6z"/><path fill="#D3D3D3" d="M191 91c-.1-.5-.3-1-.5-1.5-.1-.2-.1-.3-.2-.5-.1-.3-.3-.6-.4-1-.1-.2-.2-.3-.3-.5-.2-.3-.3-.6-.5-.8-.1-.2-.2-.3-.3-.5-.2-.3-.4-.5-.6-.8-.1-.1-.2-.3-.3-.4-.2-.3-.5-.6-.8-.9l-.2-.2c-.3-.4-.7-.7-1.1-1l-.3-.3c-.3-.2-.5-.4-.8-.7-.1-.1-.3-.2-.4-.3-.3-.2-.5-.3-.8-.5-.2-.1-.3-.2-.5-.3-.3-.2-.6-.3-.8-.4-.2-.1-.3-.2-.5-.2-.3-.1-.7-.3-1-.4-.1 0-.2-.1-.4-.1-.5-.2-.9-.3-1.4-.4-.1 0-.2 0-.3-.1-.4-.1-.8-.2-1.2-.2-.2 0-.3 0-.5-.1-.3 0-.6-.1-1-.1H173.9c-.5 0-1 .1-1.4.1-.1 0-.2 0-.3.1l-1.5.3s-.6.2-1.8.5c-1.5-5.4-4.8-10.1-9.2-13.4-1.9-1.4-4-2.5-6.3-3.3-1.3-.5-2.8-.8-4.2-1-1.2-.2-2.5-.3-3.8-.3-9.4 0-17.6 5.4-21.6 13.2-.4.7-.7 1.5-1 2.2-.7 1.7-1.2 3.5-1.5 5.4-.4-.1-.6-.2-.6-.2l-1.2-.3h-.3c-.4-.1-.8-.1-1.2-.1h-1.7c-.3 0-.6 0-.8.1-.1 0-.3 0-.4.1-.3.1-.7.1-1 .2h-.2c-.4.1-.8.2-1.2.4-.1 0-.2.1-.3.1-.3.1-.6.2-.8.3-.1.1-.3.1-.4.2-.2.1-.5.2-.7.4-.1.1-.3.2-.4.2-.2.1-.5.3-.7.4-.1.1-.2.2-.4.2-.2.2-.5.4-.7.6-.1.1-.2.1-.3.2l-.9.9-.2.2c-.2.2-.5.5-.7.8l-.3.3c-.2.2-.3.5-.5.7-.1.1-.2.3-.3.4-.1.2-.3.5-.4.7-.1.1-.1.3-.2.4-.1.3-.2.5-.4.8-.1.1-.1.3-.2.4-.2.4-.3.8-.4 1.3-.1.4-.2.9-.3 1.3-.1.9-.2 1.7-.2 2.6 0 .4 0 .9.1 1.3-3.7 1-6 1.6-6 1.6-3.5.9-5.5 4.5-4.6 8 .1.4.2.7.4 1.1.1.1.1.2.2.3.1.2.2.4.4.6l.3.3c.1.2.3.3.4.5l.3.3c.2.1.3.3.5.4.1.1.3.2.4.3.2.1.3.2.5.3.1.1.3.1.4.2.2.1.4.2.6.2.2 0 .3.1.5.1s.4.1.6.1h76.3s3.1-.1 4.7-.6c9.2-2.3 14.4-11.4 12-20.2z"/><path fill="#F9D915" d="M166.3 138.9c0-.1-.1-.1-.2-.2L139 117.8l-.8-.6c0 .1-.2.4-.3.6-1.8 4.6-4.3 8.8-7.4 12.6l32.6 13.6h.1c1.5.6 3.3-.2 3.9-1.7.5-1.2.2-2.5-.8-3.4z"/></svg>