<svg xmlns="http://www.w3.org/2000/svg" viewBox="0 0 200 200" xml:space="preserve"><g fill="#F9D915"><circle cx="100" cy="100" r="46.1"/><path d="m49.2 18.6 15.6 38.1c4.6-3.7 9.8-6.7 15.4-8.9L55.3 15.1s0-.1-.1-.1c-1.2-1.4-3.4-1.7-4.9-.6-1.2.9-1.7 2.5-1.2 3.9 0 .1 0 .2.1.3zM100 44.1c3.1 0 6.1.3 9 .7l-5.3-40.7V4c-.3-1.9-2-3.2-4-3-1.5.2-2.7 1.3-3 2.8 0 .1-.1.2-.1.2l-5.5 40.7c3-.4 5.9-.6 8.9-.6zM44.1 100c0-3.1.3-6.1.7-9L4.1 96.3H4c-1.9.3-3.2 2-3 4 .2 1.5 1.3 2.7 2.8 3 .1 0 .2.1.2.1l40.8 5.5c-.4-3-.7-5.9-.7-8.9zM152.3 80.2 185 55.3l.1-.1c1.5-1.2 1.7-3.4.6-4.9-.9-1.2-2.5-1.7-3.9-1.2-.1 0-.2 0-.2.1l-38 15.6c3.5 4.6 6.5 9.8 8.7 15.4zM135.4 56.7l15.8-37.9v-.1c.3-.8.3-1.8 0-2.6-.4-.9-1-1.6-1.9-1.9-1.4-.6-3-.2-4 .9l-.2.2L120 47.8c5.6 2.2 10.8 5.2 15.4 8.9zM15.3 54.9 47.8 80c2.2-5.6 5.2-10.8 8.9-15.4L18.8 48.8h-.1c-1.7-.7-3.8.2-4.5 1.9-.6 1.4-.2 3 .9 4 0 .1.1.1.2.2zM184.7 145.1 152.2 120c-2.2 5.6-5.2 10.8-8.9 15.4l37.9 15.8h.1c1.7.7 3.8-.2 4.5-1.9.6-1.4.2-3-.9-4 0-.1-.1-.1-.2-.2zM199 99.8c-.2-1.5-1.3-2.7-2.8-3-.1 0-.2-.1-.2-.1l-40.7-5.5c.5 2.9.7 5.8.7 8.8 0 3.1-.3 6.1-.7 9l40.7-5.3h.1c1.8-.3 3.1-2 2.9-3.9zM150.8 181.4l-15.6-38.1c-4.6 3.7-9.8 6.7-15.4 8.9l24.9 32.7.1.1c1.2 1.4 3.4 1.7 4.9.6 1.2-.9 1.7-2.5 1.2-3.9 0-.1 0-.2-.1-.3zM47.8 119.8l-32.7 24.9s-.1 0-.1.1c-.7.6-1.1 1.4-1.3 2.3-.1.9.1 1.9.7 2.6.9 1.2 2.5 1.7 3.9 1.2.1 0 .2 0 .2-.1l38.1-15.6c-3.7-4.6-6.7-9.8-8.8-15.4zM100 155.9c-3.1 0-6.1-.3-9-.7l5.3 40.8v.1c.3 1.7 1.8 3 3.5 3h.5c1.5-.2 2.7-1.3 3-2.8 0-.1.1-.2.1-.2l5.5-40.8c-3 .3-5.9.6-8.9.6zM64.6 143.2l-15.8 38v.1c-.3.8-.3 1.8 0 2.6.4.9 1 1.6 1.9 1.9 1.4.6 3 .2 4-.9l.2-.2L80 152.2c-5.6-2.2-10.8-5.2-15.4-9z"/></g></svg>