<svg xmlns="http://www.w3.org/2000/svg" viewBox="0 0 200 200" xml:space="preserve"><path fill="none" d="M19.5 127.2c-.1-.1-.3-.2-.4-.3.1.1.2.2.4.3zM18.7 126.7c-.1-.1-.3-.2-.4-.3.1 0 .2.2.4.3zM17.9 126.1c-.1-.1-.3-.2-.4-.3.2 0 .3.2.4.3zM16.6 124.7c-.1-.1-.2-.3-.3-.4.1.1.2.3.3.4zM16 123.9c-.1-.1-.2-.3-.3-.5.1.2.2.4.3.5zM17.2 125.4c-.1-.1-.2-.3-.4-.4l.4.4zM22 128.3c-.2-.1-.3-.1-.5-.2.2.1.4.2.5.2zM20.3 127.6c-.2-.1-.3-.2-.4-.2.1.1.2.2.4.2zM42.4 81.3c.1-.1.2-.1.3-.2-.1 0-.2.1-.3.2zM21.1 128c-.2-.1-.3-.1-.5-.2.2.1.4.2.5.2zM38.2 85.4c.1-.1.2-.2.2-.3-.1.1-.1.2-.2.3zM15.5 123.1c-.1-.2-.2-.3-.3-.5.1.2.2.4.3.5zM37 87.1c.1-.1.1-.2.2-.3-.1.1-.2.2-.2.3zM40.9 82.5l.2-.2c-.1.1-.1.2-.2.2zM39.6 83.8l.1-.1c-.1 0-.1.1-.1.1zM36 88.6zM23.9 128.8c-.2 0-.3 0-.5-.1.2 0 .3 0 .5.1zM14.7 121.3c-.1-.3-.2-.6-.3-1 .1.4.2.7.3 1zM15 122.3l-.3-.6c.2.2.3.4.3.6zM34.2 92.5c0-.1.1-.2.1-.3 0 .1 0 .2-.1.3zM35 90.6c0-.1.1-.2.1-.3 0 .1 0 .2-.1.3zM23 128.6c-.2 0-.3-.1-.5-.1.1 0 .3.1.5.1zM166 71.6c.1 0 .1 0 .2.1-.1-.1-.1-.1-.2-.1zM168.1 72.2c.1 0 .2.1.3.1-.1 0-.2 0-.3-.1zM170.3 73c.1.1.3.1.4.2-.2 0-.3-.1-.4-.2zM163.6 71.1c.1 0 .3 0 .4.1-.2 0-.3-.1-.4-.1zM172.5 74.1c.1 0 .2.1.2.1s-.1-.1-.2-.1zM155.1 71c.2 0 .4-.1.6-.1-.3.1-.4.1-.6.1zM153.4 71.3c.2 0 .3-.1.5-.1-.2 0-.4.1-.5.1zM174.4 75.2c.1 0 .1.1.2.1 0 0-.1 0-.2-.1zM156.8 70.8h.5-.5zM159 70.7h.1-.1zM176.3 76.5c.1.1.2.2.3.2 0 0-.1-.1-.3-.2zM186.2 89.8c0 .1.1.2.1.4 0-.2 0-.3-.1-.4zM185.2 87.4c.1.1.1.2.2.4 0-.1-.1-.3-.2-.4zM184.2 85.4s0 .1 0 0c0 .1 0 0 0 0zM25.5 128.9h.7-.9.2zM178.2 78.1c.1.1.2.1.2.2 0-.1-.1-.2-.2-.2zM182.9 83.3c.1.1.1.2.2.3-.1-.1-.1-.2-.2-.3zM24.9 128.9h-.5c.1-.1.3-.1.5 0zM179.9 79.7l.1.1c0-.1 0-.1-.1-.1zM181.4 81.4l.3.3-.3-.3zM161.2 70.8h.3-.3zM47.5 78.3c.1 0 .2-.1.3-.1-.1 0-.2 0-.3.1zM45.7 79.1c.1 0 .1-.1.2-.1 0 .1-.1.1-.2.1zM51.3 77h.2c-.1-.1-.2-.1-.2 0zM53.2 76.6zM49.4 77.5c.1 0 .2-.1.3-.1-.1.1-.2.1-.3.1zM44.1 80.1c.1 0 .1-.1.2-.1-.1 0-.1 0-.2.1z"/><path fill="#DDC72D" d="M61.7 76.6c.1 0 .3 0 .4.1-.2-.1-.3-.1-.4-.1zM57.4 76.2c-.1 0-.1 0 0 0-.1 0-.1 0 0 0zM58.8 76.2h.4-.4z"/><path fill="#F9D915" d="M60 70.3c2.6-9.1 7.8-17.3 15-23.6 3.6-3.2 7.7-5.7 12-7.7-4.7-5.9-11.9-9.6-20-9.6-14.1 0-25.6 11.5-25.6 25.6 0 6.4 2.4 12.3 6.3 16.8 3.1-1 6.3-1.6 9.7-1.6.8 0 1.7 0 2.6.1z"/><path fill="#DDC72D" d="M60.2 76.4c.2 0 .3 0 .5.1-.2-.1-.4-.1-.5-.1zM55.2 76.3h.3-.3zM53.5 76.5c-.1 0-.2 0-.3.1.1-.1.2-.1.3-.1z"/><path fill="#F9D915" d="m38.7 9.8 8.7 21.1c2.5-2.1 5.4-3.7 8.6-4.9L42.1 7.8c-.6-.8-1.9-1-2.7-.3-.7.5-.9 1.4-.7 2.2v.1zM72 24.4 69.1 1.7v-.1C68.9.6 68-.2 66.9-.1c-.8.1-1.5.7-1.7 1.5v.1l-3 22.6c1.6-.3 3.2-.4 4.9-.4 1.6.2 3.2.4 4.9.7zM13.5 56.8h.1l22.6 3c-.3-1.6-.4-3.2-.4-4.9 0-1.7.1-3.4.4-5l-22.6 2.9h-.1c-1 .2-1.8 1.1-1.6 2.2.2 1 .8 1.6 1.6 1.8zM95.4 9.9c.2-.5.2-1 0-1.5s-.6-.9-1.1-1.1c-.8-.3-1.7-.1-2.2.5l-.1.1L78.1 26c3.1 1.2 6 2.9 8.5 5l8.8-21.1zM19.9 29.9l18.1 14c1.2-3.1 2.9-6 5-8.5l-21.1-8.8h-.1c-1-.4-2.1.1-2.5 1.1-.3.8-.1 1.7.5 2.2h.1z"/><path fill="#D3D3D3" d="M187 92.3c-.2-.7-.4-1.4-.7-2.2 0-.1-.1-.3-.1-.4-.2-.7-.5-1.3-.8-2-.1-.1-.1-.2-.2-.4-.3-.7-.6-1.3-1-1.9 0 0 0-.1-.1-.1-.3-.6-.7-1.2-1.1-1.8-.1-.1-.1-.2-.2-.3-.4-.6-.8-1.1-1.2-1.7l-.3-.3c-.4-.5-.9-1.1-1.4-1.6l-.1-.1-1.4-1.4c-.1-.1-.2-.1-.2-.2-.5-.5-1-.9-1.6-1.3-.1-.1-.2-.2-.3-.2-.5-.4-1.1-.8-1.7-1.2-.1 0-.1-.1-.2-.1-.6-.4-1.1-.7-1.7-1-.1 0-.2-.1-.2-.1l-1.8-.9c-.1-.1-.2-.1-.4-.2-.6-.3-1.3-.5-1.9-.7-.1 0-.2-.1-.3-.1-.6-.2-1.3-.4-1.9-.6-.1 0-.1 0-.2-.1-.7-.2-1.3-.3-2-.4-.1 0-.3 0-.4-.1-.7-.1-1.4-.2-2-.3h-.3c-.7-.1-1.4-.1-2.1-.1h-.1c-.5 0-1.1 0-1.6.1h-.5c-.4 0-.8.1-1.2.1-.2 0-.4 0-.6.1-.4.1-.8.1-1.2.2-.2 0-.3.1-.5.1-.6.1-1.1.2-1.7.4 0 0-1.1.3-3.1.8-4.9-18.3-21.6-31.8-41.5-31.8-2.6 0-5.2.2-7.6.7-1.4.3-2.8.6-4.2 1-1.8.5-3.5 1.1-5.1 1.8C76.9 49.8 67 62.2 64.8 77.1c-.4-.1-.6-.2-.8-.2-.4.1-.5.1-.5.1-.5-.1-.9-.2-1.4-.3-.1 0-.3-.1-.4-.1-.3-.1-.7-.1-1-.2-.2 0-.3 0-.5-.1-.3 0-.7-.1-1-.1h-1.9c-.6 0-1.2 0-1.8.1h-.3c-.6.1-1.2.1-1.7.2-.1 0-.2 0-.3.1-.6.1-1.1.2-1.7.4h-.2c-.5.1-1.1.3-1.6.5-.1 0-.2.1-.3.1-.5.2-1.1.4-1.6.6-.1 0-.2.1-.3.1-.5.2-1 .5-1.5.7-.1 0-.1.1-.2.1-.5.3-.9.5-1.4.8-.1 0-.1.1-.2.1-.5.3-.9.6-1.4 1-.1.1-.2.1-.3.2-.5.3-.9.7-1.3 1.1l-.2.2-1.2 1.2-.1.1c-.4.4-.8.9-1.2 1.3-.1.1-.2.2-.2.3-.4.4-.7.9-1 1.4-.2.1-.3.2-.3.3l-.9 1.5s0 .1-.1.1c-.3.5-.6 1.1-.8 1.6 0 .1-.1.2-.1.3-.2.5-.5 1.1-.7 1.7 0 .1-.1.2-.1.3l-.6 1.8c-.2.8-.4 1.5-.5 2.3s-.2 1.5-.3 2.3c-.1 1.5-.1 3 .1 4.5-6.5 1.8-10.5 2.8-10.5 2.8-6.1 1.6-9.8 7.9-8.1 14 .1.3.2.6.3 1 0 .1.1.2.1.3l.3.6c.1.1.1.2.2.4s.2.3.3.5c.1.1.1.2.2.4s.2.3.3.5l.3.3c.1.1.2.3.3.4l.3.3c.1.1.2.3.4.4l.3.3c.1.1.2.2.4.3l.3.3c.1.1.3.2.4.3.1.1.2.2.4.3.1.1.3.2.4.3.1.1.3.1.4.2.1.1.3.2.4.2.1.1.3.1.4.2.2.1.3.1.5.2.1.1.3.1.4.2.2.1.3.1.5.2.1 0 .3.1.4.1.2 0 .3.1.5.1.1 0 .3.1.4.1.2 0 .3.1.5.1.1 0 .3 0 .4.1h133.9s5.5-.3 8.2-1c15.5-4.2 24.7-20.1 20.5-35.6z"/><path fill="#F9D915" d="M42.5 74.1C40.6 71.7 39 69 37.9 66L19.8 79.8h-.1c-.4.3-.6.8-.7 1.3-.1.5.1 1 .4 1.5.5.7 1.4.9 2.2.7h.1l18-7.4 3.2-1.3c-.2-.2-.3-.4-.4-.5z"/><path fill="#FFF" d="M181.7 81.7c.4.5.8 1.1 1.2 1.7-.4-.6-.8-1.2-1.2-1.7zM183.1 83.6c.4.6.8 1.2 1.1 1.8-.3-.6-.7-1.2-1.1-1.8zM178.5 78.3zM180 79.8c.5.5.9 1 1.4 1.6-.4-.6-.9-1.1-1.4-1.6zM164 71.2c.7.1 1.4.3 2 .4-.7-.2-1.4-.3-2-.4zM155.6 70.9c.4 0 .8-.1 1.2-.1-.4.1-.8.1-1.2.1zM157.3 70.8c.6 0 1.1-.1 1.6-.1-.5 0-1 .1-1.6.1zM41.1 82.4c.4-.4.9-.7 1.3-1.1-.4.3-.9.7-1.3 1.1zM151.7 71.7c.6-.1 1.1-.3 1.7-.4-.6.1-1.1.2-1.7.4zM161.5 70.9c.7.1 1.4.1 2 .3-.6-.2-1.3-.3-2-.3zM153.9 71.2c.4-.1.8-.1 1.2-.2-.4.1-.8.1-1.2.2zM170.7 73.2l1.8.9-1.8-.9zM172.7 74.2c.6.3 1.1.6 1.7 1-.5-.3-1.1-.7-1.7-1zM174.7 75.3c.6.4 1.1.8 1.7 1.2-.6-.4-1.2-.8-1.7-1.2zM184.3 85.5c.4.6.7 1.3 1 1.9-.4-.6-.7-1.3-1-1.9zM176.7 76.8c.5.4 1.1.8 1.6 1.3-.6-.5-1.1-.9-1.6-1.3zM168.4 72.3c.6.2 1.3.5 1.9.7-.6-.2-1.3-.5-1.9-.7zM166.2 71.7c.6.2 1.3.4 1.9.6-.6-.3-1.3-.5-1.9-.6zM159.1 70.7c.7 0 1.4 0 2.1.1-.7 0-1.4-.1-2.1-.1zM33.2 96.7c.1-.8.3-1.5.5-2.3-.2.7-.4 1.5-.5 2.3zM47.8 78.1c.5-.2 1.1-.4 1.6-.6-.5.2-1.1.4-1.6.6zM33.7 94.4l.6-1.8c-.3.5-.5 1.1-.6 1.8zM14.8 121.6c0-.1-.1-.2-.1-.3 0 .1.1.2.1.3zM32.9 99c.1-.8.1-1.5.3-2.3-.2.7-.2 1.5-.3 2.3zM51.4 76.9c.6-.1 1.1-.3 1.7-.4-.5.2-1.1.3-1.7.4zM15.7 123.5c-.1-.1-.2-.2-.2-.4.1.1.1.3.2.4zM15.2 122.6c-.1-.1-.1-.2-.2-.4.1.2.2.3.2.4zM49.7 77.4c.5-.2 1.1-.3 1.6-.5-.6.2-1.1.4-1.6.5zM39.7 83.7l1.2-1.2-1.2 1.2zM44.3 80c.5-.3.9-.6 1.4-.8-.5.2-.9.5-1.4.8zM16.3 124.3l-.3-.3.3.3zM38.4 85.1c.4-.5.8-.9 1.2-1.3-.4.5-.8.9-1.2 1.3zM42.7 81.1c.5-.3.9-.7 1.4-1-.5.3-.9.6-1.4 1zM36.1 88.5 37 87c-.3.5-.7 1-.9 1.5zM45.9 79c.5-.3 1-.5 1.5-.7-.4.2-1 .4-1.5.7zM35.2 90.3c.3-.6.5-1.1.8-1.6-.3.5-.6 1-.8 1.6zM34.3 92.2c.2-.6.4-1.1.7-1.7-.2.6-.4 1.2-.7 1.7zM37.1 86.8c.3-.5.7-.9 1-1.4-.3.5-.6.9-1 1.4zM185.4 87.8zM22.5 128.5c-.1 0-.3-.1-.4-.1.1 0 .2 0 .4.1zM23.4 128.7c-.1 0-.3-.1-.4-.1.1 0 .2.1.4.1zM20.7 127.8c-.1-.1-.3-.1-.4-.2.1.1.2.2.4.2zM25.3 128.9h-.4.4zM24.3 128.8c-.1 0-.3 0-.4-.1.1.1.3.1.4.1zM186.4 90.1c.2.7.5 1.4.7 2.2-.3-.8-.5-1.5-.7-2.2zM19.8 127.4c-.1-.1-.3-.1-.4-.2.2.1.3.1.4.2zM21.6 128.2c-.1-.1-.3-.1-.4-.2.1.1.2.1.4.2zM17.6 125.7l-.3-.3c0 .1.1.2.3.3zM18.3 126.3l-.3-.3c0 .2.2.3.3.3zM16.9 125l-.3-.3.3.3zM19 126.9zM63.8 77h-.3c-.5-.1-.9-.2-1.4-.3.5.1.9.2 1.4.3h.3zM59.2 76.3c.3 0 .7.1 1 .1-.4-.1-.7-.1-1-.1zM63.8 77c.2.1.5.1.8.2-.3 0-.6-.1-.8-.2zM57.4 76.2h1.4-1.4zM53.5 76.5c.6-.1 1.1-.2 1.7-.2-.6 0-1.1.1-1.7.2zM60.7 76.4c.3 0 .7.1 1 .2-.4-.1-.7-.1-1-.2zM55.5 76.3c.6 0 1.2-.1 1.8-.1-.6 0-1.2 0-1.8.1z"/><path fill="#F9D915" d="M89.5 141.8c0-.5-.5-.8-1-.8H69.2c-.5 0-.8.3-1 .5l-7.6 21.6v.3c0 .5.5.8 1 .8h7.3l-6.8 19.4v.3c0 .8.8 1.5 2 1.5.7 0 1.4-.3 1.7-.8L88.1 155v-.3c0-.5-.5-.8-1-.8h-6.8l9.1-12 .1-.1z"/><path fill="#6EC4E9" d="M105.3 167.3c.4-.9-.2-1.9-1.2-2.2-.9-.3-1.9 0-2.3.7l-19.4 24.8c-.4.5-.7 1-1 1.6-1.2 3 .6 6.4 4 7.5 3.4 1.1 7-.4 8.3-3.3l11.5-28.9.1-.2zM139.3 143.3c.4-.9-.2-1.9-1.2-2.2-.9-.3-1.9 0-2.3.7l-19.4 24.8c-.4.5-.7 1-1 1.6-1.2 3 .6 6.4 4 7.5 3.4 1.1 7-.4 8.3-3.3l11.5-28.9.1-.2z"/></svg>