<svg xmlns="http://www.w3.org/2000/svg" viewBox="0 0 200 200" xml:space="preserve"><g fill="#6EC4E9"><path d="M52.1 122.4c.2-.6-.1-1.2-.7-1.4-.6-.2-1.2 0-1.4.5l-12 15.3c-.2.3-.5.6-.6 1-.7 1.9.4 3.9 2.4 4.6 2.1.7 4.3-.2 5.1-2l7.2-18zM108.8 121.1c-1-.2-2 .2-2.5 1l-34.8 53.7c-.6.9-1.1 1.8-1.4 2.9-1.6 5.4 2 11 8.1 12.4 6 1.4 12.2-1.7 13.9-7.1l8.4-27.9v-.1l9.8-32.5v-.2c.3-.8-.4-1.9-1.5-2.2zM82.1 123.3c.4-.9-.2-1.9-1.2-2.2-.9-.3-1.9 0-2.3.7l-19.4 24.8c-.4.5-.7 1-1 1.6-1.2 3 .6 6.4 4 7.5 3.4 1.1 7-.4 8.3-3.3L82 123.5l.1-.2zM142.1 123.3c.4-.9-.2-1.9-1.2-2.2-.9-.3-1.9 0-2.3.7l-19.4 24.8c-.4.5-.7 1-1 1.6-1.2 3 .6 6.4 4 7.5 3.4 1.1 7-.4 8.3-3.3l11.5-28.9.1-.2z"/></g><path fill="#D3D3D3" d="M175.1 72.2c-4.1-15.4-19.9-24.6-35.3-20.6 0 0-1.1.3-3.1.8-4.9-18.3-21.6-31.8-41.5-31.8-21.5 0-39.4 15.9-42.5 36.6-.7-.2-1.1-.3-1.1-.3-13-3.4-26.3 4.4-29.8 17.4-.8 3.1-1 6.2-.7 9.1-6.5 1.8-10.5 2.8-10.5 2.8-6.1 1.6-9.8 7.9-8.1 14 1.4 5.4 6.5 8.8 11.8 8.5h132.1s5.5-.3 8.2-1c15.4-4.1 24.6-20 20.5-35.5z"/><path fill="#D3D3D3" d="M197.4 52.8c-2.4-8.8-11.3-14-20.1-11.7 0 0-.6.2-1.8.5-2.8-10.4-12.3-18.1-23.6-18.1-7.5 0-14.1 3.4-18.6 8.7 3.2 3.7 5.8 7.9 7.9 12.4 1.6-.2 3.3-.3 5-.3 16.9 0 31.8 11.4 36.2 27.8l.3 1.5c1-.1 2.2-.2 3-.4 8.9-2.5 14.1-11.6 11.7-20.4z"/></svg>