<svg xmlns="http://www.w3.org/2000/svg" viewBox="0 0 200 200" xml:space="preserve"><path fill="#D3D3D3" d="M106.8 88c-.3.1-.5.3-.8.4.2-.2.5-.3.8-.4zM104.1 89.2c-.3.1-.5.2-.8.3.2 0 .5-.2.8-.3zM100.9 90.4c-.1 0-.2.1-.3.1.1 0 .2 0 .3-.1zM97.9 91.4c-.3.1-.5.1-.8.2.3-.1.6-.2.8-.2zM114.2 80.9c.5-.1.9-.1 1.4-.2-.5.1-1 .1-1.4.2zM116.1 80.6c.6-.1 1.3-.3 1.9-.4-.6.1-1.2.3-1.9.4zM118 80.2c-1.3 1.2-2.7 2.4-4.1 3.4 1.4-1.1 2.8-2.2 4.1-3.4zM92.1 92.5c-.2 0-.3.1-.5.1.1 0 .3 0 .5-.1zM79.7 92.6c-.2 0-.5-.1-.7-.1.2.1.4.1.7.1zM82.9 92.9h-.5.5zM76.9 92.2c-.3-.1-.5-.1-.8-.2.3.1.5.1.8.2zM112.1 81.1c.5 0 .9-.1 1.4-.1-.4 0-.9.1-1.4.1zM95.2 92c-.3.1-.6.1-.9.2.3-.1.6-.1.9-.2zM85.6 93h.5-.9.4zM88.8 92.9h-.7.7zM72.8 61.3c.6.8 1.2 1.6 1.9 2.4-.6-.8-1.3-1.6-1.9-2.4zM79.6 68.7c.7.6 1.4 1.3 2.2 1.9-.8-.6-1.5-1.3-2.2-1.9zM84.5 72.7c.8.5 1.5 1 2.3 1.5-.8-.5-1.5-1-2.3-1.5zM74.8 63.8c.6.7 1.3 1.5 2 2.2-.7-.8-1.3-1.5-2-2.2zM82 70.7c.7.6 1.4 1.1 2.2 1.7-.8-.5-1.5-1.1-2.2-1.7zM68.8 55.2c.5.9 1.1 1.8 1.7 2.7-.6-.9-1.2-1.8-1.7-2.7zM70.7 58.3c.6.8 1.1 1.7 1.7 2.5-.5-.8-1.1-1.6-1.7-2.5zM73.8 91.5c-.1 0-.3-.1-.4-.1.1 0 .3.1.4.1zM95.5 78.6c.8.3 1.6.6 2.5.8-.8-.2-1.7-.5-2.5-.8zM98.4 79.5c.8.2 1.6.5 2.4.6-.8-.1-1.6-.3-2.4-.6zM101 80.2c.8.2 1.7.3 2.5.5-.8-.1-1.6-.3-2.5-.5zM87.3 74.5c.8.5 1.6.9 2.4 1.4-.9-.5-1.7-.9-2.4-1.4zM104.1 80.8c.8.1 1.7.2 2.5.3-.9-.1-1.7-.2-2.5-.3zM89.9 76c.8.4 1.5.8 2.3 1.2-.7-.4-1.5-.8-2.3-1.2zM107 81.1c.8.1 1.6.1 2.5.1-.9 0-1.7 0-2.5-.1zM92.6 77.3c.8.4 1.6.7 2.4 1-.8-.3-1.6-.6-2.4-1zM65.1 88.4c-.1 0-.2-.1-.3-.1.1 0 .2 0 .3.1zM50.1 77.2l-.1-.1c.1 0 .1 0 .1.1zM52.6 79.7l-.6-.6.6.6zM62.4 86.9c-.2-.1-.4-.2-.6-.4.1.2.3.3.6.4zM48.2 74.9c-.2-.2-.3-.4-.5-.7.2.2.3.4.5.7zM54.8 81.7c-.2-.2-.4-.3-.6-.5.2.1.4.3.6.5zM59.9 85.5c-.2-.1-.5-.3-.7-.4.3.1.5.2.7.4zM57.1 83.6c-.1 0-.1-.1-.2-.1.1 0 .2 0 .2.1z"/><path fill="#D3D3D3" d="M186 72.2c-4.1-15.4-19.9-24.6-35.3-20.6 0 0-1.1.3-3.1.8-4.9-18.3-21.6-31.8-41.5-31.8-15.6 0-29.3 8.3-36.8 20.8 1.1 3.7 2.6 7.3 4.6 10.8 8.1 14 22.1 23 35.6 23 2.4 0 4.7-.3 7-.9.5-.1 1-.2 1.5-.2 2.2 0 4.2 1.2 5.3 3.1 1.3 2.4.8 5.4-1.2 7.3-3 2.8-6.3 5.2-9.8 7.3-8.1 4.7-17.4 7.2-26.7 7.2-19.1 0-36.9-10.3-46.4-26.8-1.1-1.9-2-3.8-2.9-5.8-1.6 2.3-2.9 4.9-3.7 7.8-.8 3.1-1 6.2-.7 9.1-6.5 1.8-10.5 2.8-10.5 2.8-6.1 1.6-9.8 7.9-8.1 14 1.4 5.4 6.5 8.8 11.8 8.5h132.1s5.5-.3 8.2-1c15.6-4 24.8-19.9 20.6-35.4zM79.2 68.3z"/><path fill="#D3D3D3" d="M46.4 72.4c-.2-.2-.3-.5-.5-.7.2.3.4.5.5.7zM70.7 90.6c-.2-.1-.4-.2-.7-.2.3.1.5.1.7.2zM68.1 89.7c-.3-.1-.5-.2-.8-.3.3.1.5.2.8.3zM111.6 81.1c-.6 0-1.3.1-1.9.1.6 0 1.2 0 1.9-.1z"/><path fill="#6EC4E9" d="M124.7 121.1c-1-.2-2 .2-2.5 1l-34.8 53.7c-.6.9-1.1 1.8-1.4 2.9-1.6 5.4 2 11 8.1 12.4 6 1.4 12.2-1.7 13.9-7.1l8.4-27.9v-.1l9.8-32.5v-.2c.3-.8-.4-1.9-1.5-2.2zM86.4 152.4l11.5-28.9.1-.1c.4-.9-.2-1.9-1.2-2.2-.9-.3-1.9 0-2.3.7l-19.4 24.8c-.4.5-.7 1-1 1.6-1.2 3 .6 6.4 4 7.5 3.4 1 7-.5 8.3-3.4z"/><path fill="#DEDDDD" d="M118 80.2c-.6.2-1.3.3-1.9.4-.2 0-.4.1-.6.1-.4.1-.9.1-1.4.2-.2 0-.4.1-.7.1-.5.1-.9.1-1.4.1h-.5c-.6 0-1.3.1-1.9.1h-.1c-.8 0-1.6 0-2.5-.1h-.4c-.8-.1-1.7-.2-2.5-.3-.2 0-.3-.1-.5-.1-.8-.1-1.7-.3-2.5-.5-.1 0-.2 0-.3-.1l-2.4-.6c-.1 0-.3-.1-.4-.1-.8-.3-1.6-.5-2.5-.8-.2-.1-.3-.1-.5-.2-.8-.3-1.6-.7-2.4-1-.1-.1-.2-.1-.3-.2-.8-.4-1.5-.7-2.3-1.2-.1-.1-.2-.1-.3-.2-.8-.4-1.6-.9-2.4-1.4-.2-.1-.3-.2-.5-.3-.8-.5-1.5-1-2.3-1.5-.1-.1-.2-.2-.4-.3-.7-.5-1.4-1.1-2.2-1.7l-.2-.2c-.7-.6-1.5-1.2-2.2-1.9l-.4-.4c-.7-.6-1.4-1.3-2-2-.1-.1-.2-.2-.3-.4-.7-.7-1.3-1.4-2-2.2l-.1-.1c-.7-.8-1.3-1.6-1.9-2.4-.1-.2-.2-.3-.4-.5-.6-.8-1.2-1.6-1.7-2.5-.1-.2-.2-.3-.3-.5-.6-.9-1.1-1.8-1.7-2.7-1.2-2-2.2-4.1-3.1-6.1-7.7-18-5.2-37.5 6-49-3.4 1-6.7 2.5-9.9 4.3-20.2 12-28.5 36.4-20.8 57.6.9 2.6 2.1 5.1 3.5 7.6.5.9 1 1.7 1.6 2.5.2.2.3.5.5.7.4.6.8 1.2 1.3 1.8.2.2.3.4.5.7.6.8 1.2 1.5 1.8 2.2l.1.1c.6.7 1.2 1.3 1.9 2l.6.6c.5.5 1 1 1.6 1.4.2.2.4.3.6.5.7.6 1.4 1.2 2.2 1.8.1 0 .1.1.2.1l2.1 1.5c.2.1.5.3.7.4.6.4 1.2.7 1.8 1.1.2.1.4.2.6.4.8.5 1.6.9 2.5 1.3.1.1.2.1.3.1.7.3 1.5.7 2.2 1 .3.1.5.2.8.3.7.3 1.3.5 2 .7.2.1.4.2.7.2.9.3 1.8.5 2.6.8.1 0 .3.1.4.1.8.2 1.5.4 2.3.5.3.1.5.1.8.2l2.1.3c.2 0 .5.1.7.1l2.7.3h.5c.7 0 1.5.1 2.3.1h.9c.7 0 1.4 0 2-.1h.7c.9-.1 1.8-.1 2.7-.3.2 0 .3-.1.5-.1.7-.1 1.5-.2 2.2-.4.3-.1.6-.1.9-.2.7-.1 1.3-.3 2-.5.3-.1.5-.1.8-.2.9-.2 1.8-.5 2.7-.8.1 0 .2-.1.3-.1.8-.3 1.6-.6 2.3-.9.3-.1.5-.2.8-.3.6-.3 1.3-.6 1.9-.9.3-.1.5-.2.8-.4.9-.4 1.7-.9 2.6-1.4 1.6-.9 3.1-1.9 4.6-3 1.2-.9 2.6-2 3.9-3.2z"/><path fill="#FFF" d="M70.1 90.4c-.7-.2-1.3-.5-2-.7.7.2 1.3.5 2 .7zM86.8 74.2c.2.1.3.2.5.3-.2-.1-.4-.2-.5-.3zM109.6 81.2h-.2.2zM89.6 75.9c.1.1.2.1.3.2-.1-.1-.2-.2-.3-.2zM98 79.4c.1 0 .3.1.4.1-.2 0-.3-.1-.4-.1zM95 78.4c.2.1.3.1.5.2-.2-.1-.3-.2-.5-.2zM61.7 86.6c-.6-.4-1.2-.7-1.8-1.1.6.4 1.2.7 1.8 1.1zM79 92.5l-2.1-.3 2.1.3zM92.2 77.2c.1.1.2.1.3.2 0-.1-.2-.2-.3-.2zM82.4 92.9l-2.7-.3 2.7.3zM72.5 60.8c.1.2.2.3.4.5-.2-.2-.3-.3-.4-.5zM70.4 57.9c.1.2.2.3.3.5-.1-.2-.2-.4-.3-.5zM76.1 92c-.8-.2-1.5-.3-2.3-.5.8.2 1.5.4 2.3.5zM73.4 91.4c-.9-.2-1.8-.5-2.6-.8.8.3 1.7.6 2.6.8zM84.1 72.4c.1.1.2.2.4.3-.1-.1-.2-.2-.4-.3zM81.8 70.6l.2.2-.2-.2zM74.7 63.6l.1.1-.1-.1zM77.1 66.3c-.1-.1-.2-.2-.3-.4.1.1.2.3.3.4zM79.2 68.3l.4.4-.4-.4zM46 71.7c-.5-.8-1.1-1.6-1.6-2.5.5.9 1 1.7 1.6 2.5zM56.9 83.4c-.7-.6-1.5-1.2-2.2-1.8.8.7 1.5 1.3 2.2 1.8zM91.6 92.6l-2.7.3c.8-.1 1.7-.2 2.7-.3zM109.3 86.6c-.8.5-1.7.9-2.6 1.4.9-.4 1.8-.9 2.6-1.4zM106 88.4c-.6.3-1.3.6-1.9.9.6-.3 1.2-.6 1.9-.9zM54.2 81.2c-.5-.5-1.1-.9-1.6-1.4.5.4 1 .9 1.6 1.4zM64.8 88.2c-.8-.4-1.6-.8-2.5-1.3.9.5 1.7.9 2.5 1.3zM118 80.2zM103.3 89.6c-.8.3-1.6.6-2.3.9.7-.3 1.5-.6 2.3-.9zM97.1 91.6c-.7.2-1.3.3-2 .5.7-.2 1.4-.4 2-.5zM94.3 92.2c-.7.1-1.5.3-2.2.4.7-.2 1.5-.3 2.2-.4zM59.2 85l-2.1-1.5c.7.6 1.4 1.1 2.1 1.5zM100.6 90.6c-.9.3-1.8.6-2.7.8.9-.3 1.8-.5 2.7-.8zM47.7 74.2c-.4-.6-.9-1.2-1.3-1.8.5.6.9 1.2 1.3 1.8zM50 77.1c-.6-.7-1.2-1.5-1.8-2.2.6.7 1.2 1.5 1.8 2.2zM103.6 80.7c.2 0 .3.1.5.1-.2 0-.4-.1-.5-.1zM100.8 80.2c.1 0 .2 0 .3.1-.2-.1-.2-.1-.3-.1zM67.3 89.4c-.7-.3-1.5-.6-2.2-1 .8.3 1.5.6 2.2 1zM106.6 81.1h.4-.4zM52 79.1c-.6-.6-1.3-1.3-1.9-2 .7.8 1.3 1.4 1.9 2zM113.5 81c.2 0 .4-.1.7-.1-.2 0-.5.1-.7.1zM88.1 92.9c-.7 0-1.4.1-2 .1.6 0 1.3 0 2-.1zM85.2 93c-.8 0-1.5 0-2.3-.1.8.1 1.5.1 2.3.1zM111.6 81.1h.5-.5zM115.5 80.7c.2 0 .4-.1.6-.1-.2 0-.4.1-.6.1z"/></svg>