<svg xmlns="http://www.w3.org/2000/svg" viewBox="0 0 200 200" xml:space="preserve"><path fill="#6EC4E9" d="M129.1 129.6c-1-.2-2 .2-2.5 1l-34.8 53.7c-.6.9-1.1 1.8-1.4 2.9-1.6 5.4 2 11 8.1 12.4 6 1.4 12.2-1.7 13.9-7.1l8.4-27.9v-.1l9.8-32.5v-.2c.3-.9-.4-1.9-1.5-2.2z"/><g fill="#D3D3D3"><path d="M82.8 158.3c-.3 0-.5 0-.8-.2-1.1-.4-1.6-1.7-1.1-2.7L96.3 119c.4-1.1 1.7-1.6 2.7-1.1 1.1.4 1.6 1.7 1.2 2.7L84.7 157c-.3.8-1.1 1.3-1.9 1.3zM76.1 143.9c-.3 0-.5 0-.8-.2-1.1-.4-1.6-1.7-1.1-2.7l7.6-18.3c.4-1.1 1.7-1.6 2.7-1.1 1.1.4 1.6 1.7 1.2 2.7L78 142.6c-.3.8-1.1 1.3-1.9 1.3zM79.9 172.2c0 5.7-4.6 10.3-10.3 10.3s-10.3-4.6-10.3-10.3c0-5.7 4.6-10.3 10.3-10.3s10.3 4.6 10.3 10.3z"/></g><path fill="#D3D3D3" d="M197.9 67.2c-4.7-17.5-22.7-28-40.2-23.4 0 0-1.3.3-3.5.9-5.6-20.8-24.6-36.2-47.2-36.2-24.5 0-44.8 18.1-48.3 41.6-.8-.2-1.3-.3-1.3-.3-14.8-3.8-30 5-33.9 19.8-.9 3.5-1.1 7-.8 10.4-7.4 2-12 3.2-12 3.2-7 1.9-11.1 9-9.2 16 1.6 6.1 7.3 10 13.4 9.7h150.3s6.2-.3 9.4-1.1c17.5-4.9 28-23 23.3-40.6z"/></svg>