<?xml version="1.0" encoding="utf-8"?>
<!-- Generator: Adobe Illustrator 28.1.0, SVG Export Plug-In . SVG Version: 6.00 Build 0)  -->
<svg version="1.1" id="Layer_1" xmlns="http://www.w3.org/2000/svg" xmlns:xlink="http://www.w3.org/1999/xlink" x="0px" y="0px"
	 viewBox="0 0 683.7 210.4" style="enable-background:new 0 0 683.7 210.4;" xml:space="preserve">
<style type="text/css">
	.st0{clip-path:url(#SVGID_00000081618995281574025660000011308021081132294567_);}
	.st1{fill:#FFFFFF;}
	.st2{fill-rule:evenodd;clip-rule:evenodd;fill:#FFFFFF;}
</style>
<g>
	<defs>
		<rect id="SVGID_1_" x="-258.2" y="-21.5" width="1200" height="296.1"/>
	</defs>
	<clipPath id="SVGID_00000047746873085554417600000003774920037367823520_">
		<use xlink:href="#SVGID_1_"  style="overflow:visible;"/>
	</clipPath>
	<g style="clip-path:url(#SVGID_00000047746873085554417600000003774920037367823520_);">
		<g>
			<path class="st1" d="M373.2,159.2c-4.3,7.5-10.8,10.3-21.4,10.3c-16.4,0-26.2-10.7-26.2-27.7v-8.1c0-17.4,8.2-27.5,24.2-27.5
				c16,0,24.2,9.9,24.2,27.5v6.4h-38.7v1.7c0,10.6,5,18.9,15.7,18.9c7.9,0,12-2.3,14.6-6.9L373.2,159.2L373.2,159.2z M335.4,131.4
				h28.7c-0.5-10.3-5-16.5-14.3-16.5C340.5,115,336,121.2,335.4,131.4z"/>
			<path class="st1" d="M405.7,133h14.6v-7.1c0-8.7-4-10.7-13.6-10.7c-7.3,0-11.2,0.6-14.7,6.3l-7.3-5.2
				c4.3-7.1,10.5-10.2,22.1-10.2c15.5,0,23.2,5,23.2,19.8v42.6h-9.8v-6c-3.4,5.7-7.6,7-15.5,7c-14.2,0-21.9-7-21.9-18.9
				C382.8,137.4,392.2,133.1,405.7,133L405.7,133z M420.2,141.4h-14.6c-9.7,0-13.1,3.3-13.1,9.4c0,6.9,4.9,9.6,12.1,9.6
				c9,0,15.5-1.7,15.5-15.5V141.4L420.2,141.4z"/>
			<path class="st1" d="M438.7,107.1h7.8V93.6h9.8v13.5h14.1v8.8h-14.1v31.2c0,8.5,1,12,9.2,12h4.9v9.3h-5.3
				c-14.4,0-18.6-6.1-18.6-18.9V116h-7.8L438.7,107.1L438.7,107.1z"/>
			<path class="st1" d="M480.5,83.8h9.8v29.3c3.1-4.7,7.3-7,16.4-7c13.1,0,22.3,6.9,22.3,24.1v38.3h-9.8v-38.2
				c0-12.4-6.7-15.1-13.9-15.1c-9.2,0-14.9,6.5-14.9,15v38.3h-9.8V83.8z"/>
			<path class="st1" d="M587.7,159.2c-4.3,7.5-10.8,10.3-21.4,10.3c-16.4,0-26.2-10.7-26.2-27.7v-8.1c0-17.4,8.2-27.5,24.2-27.5
				c16,0,24.2,9.9,24.2,27.5v6.4h-38.7v1.7c0,10.6,5,18.9,15.7,18.9c7.9,0,12-2.3,14.6-6.9L587.7,159.2L587.7,159.2z M549.9,131.4
				h28.7c-0.5-10.3-5-16.5-14.3-16.5C555.1,115,550.5,121.2,549.9,131.4z"/>
			<path class="st1" d="M633.5,120.4c-2.6-3.6-5.8-5.2-10.3-5.2c-7.5,0-13.1,5.7-13.1,14.9v38.4h-9.8v-61.4h9.8v6
				c2.6-4.3,6.7-7,14.2-7c8.3,0,13.6,2.8,17.5,8.4L633.5,120.4L633.5,120.4z"/>
			<path class="st2" d="M310.5,107.1l-12.2,43.5L282,107.1h-8.2l-15.4,43.1l-12.9-45.4h-0.6l-6.7,10.7l15.3,52.9h8.6l16.3-45.9
				l16.3,45.9h8.6l17.7-61.4H310.5z"/>
			<path class="st1" d="M214.4,133l-20.5-33.9h-19.5l20.9,33.9l-36,57.9l24.3-7.9L214.4,133z"/>
			<path class="st1" d="M216.2,131.3l29.6-47.5l4.8-7.9l-24.3,7.9l-19.3,32.4L216.2,131.3z"/>
			<path class="st1" d="M206.9,149.8l12,18.7h19.5l-22.1-33.9L206.9,149.8z"/>
			<path class="st2" d="M171.1,75.2l0.1,0l0.1,0l0.1,0.1l0.1,0.1l0.1,0.1l0.1,0.1l0,0.1l0,0.1v7.3l0,0.1l0,0.1l-0.1,0.1l-0.1,0.1
				l-0.1,0.1l-0.1,0.1l-0.1,0h-16.1l-0.1,0l-0.1-0.1l-0.1-0.1l-0.1-0.1l-0.1-0.1l0-0.1l0-0.1V43.9l0-0.1l0-0.1l0.1-0.1l0.1-0.1
				l0.1-0.1l0.1,0l0.1-0.1h7.2l0.1,0.1l0.1,0l0.1,0.1l0.1,0.1l0.1,0.1l0,0.1l0,0.1v31.2L171.1,75.2L171.1,75.2z M101,83.1l0,0.1
				l0,0.1l-0.1,0.1l-0.1,0.1l-0.1,0.1l-0.1,0.1l-0.1,0H93l-0.1,0l-0.1-0.1l-0.1-0.1l-0.1-0.1l-0.1-0.1l0-0.1V43.8l0-0.1l0.1-0.1
				l0.1-0.1l0.1-0.1l0.1,0l0.1-0.1h7.4l0.1,0.1l0.1,0l0.1,0.1l0.1,0.1l0.1,0.1l0,0.1l0,0.2V83.1L101,83.1z M184.1,72.2h4.2l-2-11.6
				L184.1,72.2z M198.6,83.1l0,0.1l0,0.1l-0.1,0.1l-0.1,0.1l-0.1,0.1l-0.1,0.1l-0.1,0.1h-7.2l-0.1,0l-0.1-0.1l-0.1-0.1l-0.1-0.1
				l-0.1-0.1l-0.1-0.1l0-0.1l-0.6-3.5h-7l-0.7,3.5l0,0.1l-0.1,0.1l-0.1,0.1l-0.1,0.1l-0.1,0.1l-0.1,0.1l-0.2,0h-6.4l-0.1-0.1
				l-0.1-0.1l-0.1-0.1l-0.1-0.1l0-0.1l0-0.1v-0.2l3.5-19.5l3.5-19.6l0-0.2l0.1-0.1l0.1-0.1l0.1-0.1l0.1-0.1l0.1,0l0.1-0.1h8.1
				l0.1,0.1l0.1,0.1l0.1,0.1l0.1,0.1l0.1,0.1l0.1,0.1l0,0.2l3.8,19.6L198.6,83.1L198.6,83.1z M137,72.2h4.3l-2-11.6L137,72.2
				L137,72.2z M151.5,83.1v0.3l-0.1,0.1l-0.1,0.1l-0.1,0.1l-0.1,0.1l-0.1,0.1h-7.3l-0.1,0l-0.1-0.1l-0.1-0.1l-0.1-0.1l-0.1-0.1
				l-0.1-0.1l0-0.1l-0.6-3.5h-6.9l-0.7,3.5l0,0.1l-0.1,0.1l-0.1,0.1l-0.1,0.1l-0.1,0.1l-0.1,0.1l-0.1,0h-6.5l-0.1-0.1l-0.1-0.1
				l-0.1-0.1l-0.1-0.1l0-0.1l0-0.1v-0.1l3.5-19.5l3.5-19.6l0-0.2l0.1-0.1l0.1-0.1l0.1-0.1l0.1-0.1l0.1,0l0.1-0.1h8.2l0.1,0.1
				l0.1,0.1l0.1,0.1l0.1,0.1l0.1,0.1l0,0.1l0.1,0.2l3.9,19.6L151.5,83.1L151.5,83.1z M74.8,72.2h4.3l-2-11.6L74.8,72.2z M89.3,83.1
				v0.3l-0.1,0.1l-0.1,0.1l-0.1,0.1L89,83.7l-0.1,0.1h-7.2l-0.1,0l-0.1-0.1l-0.1-0.1l-0.1-0.1l-0.1-0.1L81,83.3l0-0.1l-0.6-3.5h-7
				l-0.7,3.5l0,0.1l-0.1,0.1l-0.1,0.1l-0.1,0.1l-0.1,0.1l-0.1,0.1l-0.1,0h-6.6l-0.1-0.1l-0.1-0.1l-0.1-0.1l0-0.1l0-0.1v-0.3
				l3.5-19.5L72.1,44l0-0.2l0.1-0.1l0.1-0.1l0.1-0.1l0.1-0.1l0.1,0l0.2-0.1h8.1l0.2,0.1l0.1,0.1l0.1,0.1l0.1,0.1l0.1,0.1l0.1,0.1
				l0,0.2l3.8,19.6L89.3,83.1L89.3,83.1z M65.5,43.3l0.1,0l0.1,0l0.1,0.1l0.1,0.1l0.1,0.1l0,0.1l0,0.1V44l-3.5,19.6l-3.5,19.5l0,0.1
				L59,83.3l-0.1,0.1l-0.1,0.1l-0.1,0.1l-0.1,0l-0.1,0.1h-8.2l-0.1-0.1L50,83.6l-0.1-0.1l-0.1-0.1l-0.1-0.1l-0.1-0.1l0-0.1
				l-3.9-19.5L41.8,44v-0.1l0-0.1v-0.1l0-0.1l0.1-0.1l0.1-0.1l0.1,0l0.1-0.1h7.3l0.1,0l0.1,0.1l0.1,0.1l0.1,0.1l0.1,0.1l0.1,0.1
				l0,0.1l3.9,22.5l4.3-22.5l0.1-0.1l0-0.1l0.1-0.1l0.1-0.1l0.1-0.1l0.1,0l0.1-0.1L65.5,43.3L65.5,43.3z M123.5,65.4l0.1,0.1
				l0.4,0.4l0.2,0.3l0.3,0.3l0.3,0.4l0.3,0.4l0.3,0.5l0.3,0.5l0.2,0.6l0.1,0.3l0.1,0.3l0.1,0.3l0.1,0.3l0.1,0.3l0.1,0.4l0,0.4l0,0.4
				l0,0.4v1.5l-0.1,0.6l-0.1,0.5l-0.1,0.5l-0.1,0.5l-0.1,0.5l-0.2,0.5l-0.2,0.5l-0.2,0.5l-0.3,0.5l-0.3,0.4l-0.3,0.5l-0.3,0.4
				l-0.3,0.4l-0.4,0.4l-0.4,0.4l-0.4,0.4l-0.4,0.3l-0.4,0.3l-0.4,0.3l-0.5,0.3l-0.5,0.3L120,83l-0.5,0.2l-0.5,0.2l-0.5,0.2l-0.5,0.1
				l-0.6,0.1l-0.6,0.1l-0.6,0.1l-0.6,0.1h-1.1l-0.6,0l-0.5-0.1l-0.5-0.1l-0.5-0.1l-0.5-0.1l-0.5-0.1l-0.5-0.1l-0.5-0.2l-0.5-0.2
				l-0.4-0.2l-0.4-0.2l-0.4-0.3l-0.2-0.1l-0.2-0.1l-0.4-0.3l-0.4-0.3l-0.4-0.3l-0.3-0.3l-0.3-0.4l-0.3-0.4l-0.3-0.4l-0.2-0.4
				l-0.2-0.4l-0.2-0.5l-0.2-0.4l-0.2-0.5l-0.2-0.5l-0.1-0.5l-0.1-0.5l-0.1-0.5l-0.1-0.5v-0.6l0-1.2l0-1.1v-0.1l0-0.1l0-0.1l0.1-0.1
				l0.1-0.1l0.1,0l0.1,0l0.1,0h7l0.1,0l0.1,0l0.1,0l0.1,0.1l0.1,0.1l0,0.1l0.1,0.1v2.6l0,0.2l0,0.2l0,0.2l0.1,0.2l0.1,0.2l0.1,0.2
				l0.1,0.2L113,76l0.1,0.1l0.2,0.2l0.2,0.1l0.2,0.1l0.2,0.1l0.2,0.1l0.2,0.1l0.2,0l0.2,0l0.2,0l0.2,0l0.2,0l0.2-0.1l0.2-0.1
				l0.2-0.1l0.2-0.1l0.1-0.1l0.2-0.1l0.1-0.1l0.1-0.2l0.1-0.2l0.1-0.2l0.1-0.2l0-0.2l0-0.1V72l-0.1-0.2l-0.1-0.3l-0.1-0.3l-0.2-0.4
				l-0.1-0.2l-0.1-0.2l-0.3-0.4l-0.2-0.2l-0.3-0.3l-1-0.9l-1.2-1.1l-1.3-1.2l-2.4-2.1l-1-0.9l-0.2-0.2l-0.4-0.5l-0.6-0.7l-0.4-0.5
				l-0.4-0.5l-0.4-0.6l-0.4-0.6l-0.3-0.6l-0.2-0.3l-0.1-0.4l-0.2-0.4l-0.1-0.4l-0.1-0.4l-0.1-0.4l-0.1-0.4l-0.1-0.4l-0.1-0.4l0-0.4
				v-0.1l0-0.5v-1.1l0-0.6l0.1-0.6l0.1-0.5l0.1-0.5l0.2-0.5l0.1-0.2l0.1-0.3l0.2-0.5l0.2-0.5l0.3-0.5l0.2-0.4l0.3-0.5l0.3-0.4
				l0.3-0.4l0.3-0.4l0.4-0.4l0.4-0.4l0.4-0.3l0.4-0.3l0.4-0.3l0.4-0.3l0.5-0.3l0.5-0.3l0.5-0.2l0.5-0.2l0.5-0.2l0.5-0.2l0.5-0.1
				l0.5-0.1l0.6-0.1l0.6-0.1h1.1l0.6,0l0.5,0.1l0.5,0.1l0.5,0.1l0.5,0.1l0.5,0.1l0.5,0.2l0.5,0.2l0.5,0.2l0.4,0.2l0.4,0.2l0.4,0.3
				l0.4,0.3l0.4,0.3l0.3,0.3l0.4,0.3l0.3,0.4l0.3,0.4l0.3,0.4l0.3,0.4l0.3,0.4l0.2,0.5l0.2,0.5l0.2,0.5l0.2,0.5l0.2,0.5l0.1,0.5
				l0.1,0.5l0.1,0.5l0,0.6l0,0.6v2.8l0,0.1l-0.1,0.1l-0.1,0.1l-0.1,0.1l-0.1,0l-0.1,0l-0.1,0l-6.9,0h-0.1l-0.1,0l-0.1-0.1l-0.1-0.1
				l-0.1-0.1l-0.1-0.1l0-0.1v-3.6l0-0.2l0-0.2l0-0.2l-0.1-0.2l-0.1-0.2l-0.1-0.2l-0.1-0.2l-0.2-0.2l-0.1-0.1l-0.2-0.1l-0.2-0.1
				l-0.2-0.1l-0.2-0.1l-0.2,0l-0.2,0l-0.2,0l-0.2,0l-0.2,0l-0.2,0l-0.2,0.1l-0.2,0.1l-0.2,0.1l-0.2,0.1l-0.1,0.1l-0.2,0.1l-0.1,0.2
				l-0.1,0.2l-0.1,0.2l-0.1,0.2l-0.1,0.2l-0.1,0.2v0.2l0,2.4v0.1l0.1,0.5l0.1,0.3l0.1,0.4l0.1,0.2l0.1,0.2l0.1,0.2l0.1,0.2l0.1,0.2
				l0.1,0.2l0.1,0.1l0.1,0.1l0.5,0.4l1.1,1l3,2.8L123.5,65.4L123.5,65.4z"/>
		</g>
	</g>
</g>
</svg>
