<svg xmlns="http://www.w3.org/2000/svg" width="95.855" height="95.855" viewBox="0 0 25.362 25.362"><defs><clipPath id="a" clipPathUnits="userSpaceOnUse"><path d="M0 288h288V0H0Z"/></clipPath></defs><path style="fill:#000;fill-opacity:.50196081;fill-rule:nonzero;stroke:none" d="M175.389 39.478h-71.891v71.891h71.891z" transform="matrix(.35278 0 0 -.35278 -36.512 39.289)"/><path style="fill:#fff;fill-opacity:1;fill-rule:nonzero;stroke:none" d="M0 0h-3.041v2.34h8.655V0H2.54v-9.979H0Z" transform="matrix(.35278 0 0 -.35278 2.828 7.51)"/><g clip-path="url(#a)" transform="matrix(.35278 0 0 -.35278 -36.512 39.289)"><path style="fill:#fff;fill-opacity:1;fill-rule:nonzero;stroke:none" d="M0 0h2.54v-5.118h.033a2.83 2.83 0 0 0 1.002.932c.385.219.853.347 1.321.347 1.621 0 2.857-1.224 2.857-3.931v-5.209h-2.54v4.917c0 1.17-.367 1.975-1.32 1.975-.668 0-1.086-.475-1.27-.987-.066-.163-.083-.403-.083-.605v-5.3H0Z" transform="translate(118.2 93.08)"/><path style="fill:#fff;fill-opacity:1;fill-rule:nonzero;stroke:none" d="M0 0c0 .659-.268 1.81-1.42 1.81C-2.507 1.81-2.94.731-3.008 0Zm-2.991-1.901c.084-1.17 1.12-1.717 2.305-1.717.87 0 1.572.127 2.256.383l.334-1.883c-.835-.384-1.854-.567-2.957-.567-2.773 0-4.361 1.755-4.361 4.571 0 2.266 1.304 4.77 4.127 4.77 2.641 0 3.642-2.247 3.642-4.46 0-.474-.049-.896-.083-1.115z" transform="translate(132.938 85.603)"/><path style="fill:#fff;fill-opacity:1;fill-rule:nonzero;stroke:none" d="m0 0-2.674 12.348H.05l.852-5.075c.25-1.484.485-3.078.668-4.342h.034c.184 1.356.451 2.84.735 4.38l.952 5.037h2.707L6.9 7.145c.251-1.448.435-2.767.602-4.14h.033c.167 1.373.418 2.822.652 4.306l.919 5.037h2.589L8.788 0H6.031l-.952 5.313a47.012 47.012 0 0 0-.534 3.811h-.034c-.2-1.393-.384-2.565-.652-3.811L2.79 0Z" transform="translate(111.148 63.153)"/><path style="fill:#fff;fill-opacity:1;fill-rule:nonzero;stroke:none" d="M0 0c0 .659-.267 1.813-1.42 1.813C-2.506 1.813-2.94.732-3.007 0Zm-2.99-1.907c.083-1.171 1.119-1.721 2.305-1.721.87 0 1.571.127 2.256.384l.334-1.887c-.836-.385-1.854-.568-2.958-.568-2.773 0-4.36 1.76-4.36 4.581 0 2.271 1.303 4.781 4.127 4.781 2.64 0 3.642-2.253 3.642-4.471 0-.474-.05-.898-.084-1.117z" transform="translate(128.26 68.669)"/><path style="fill:#fff;fill-opacity:1;fill-rule:nonzero;stroke:none" d="M0 0c-1.336 0-2.372-.35-2.372-1.412 0-.715.434-1.063 1.002-1.063.618 0 1.153.457 1.32 1.026.033.146.05.311.05.477zm2.456-2.071c0-.843.034-1.667.134-2.162H.301l-.151.897H.101c-.535-.715-1.371-1.099-2.339-1.099-1.655 0-2.641 1.319-2.641 2.748 0 2.327 1.905 3.426 4.796 3.426v.111c0 .475-.234 1.153-1.487 1.153-.835 0-1.721-.311-2.256-.659l-.468 1.777c.568.349 1.688.806 3.175.806 2.723 0 3.575-1.76 3.575-3.866z" transform="translate(136.48 67.387)"/><path style="fill:#fff;fill-opacity:1;fill-rule:nonzero;stroke:none" d="M0 0v-2.438h1.821v-2.051H0V-7.75c0-1.081.251-1.576 1.003-1.576.351 0 .518.018.752.074l.016-2.108c-.317-.128-.936-.238-1.637-.238-.819 0-1.504.311-1.922.77-.468.53-.701 1.391-.701 2.657v3.682h-1.086v2.051h1.086v1.686z" transform="translate(143.669 74.55)"/><path style="fill:#fff;fill-opacity:1;fill-rule:nonzero;stroke:none" d="M0 0h2.539v-5.13h.034c.267.403.601.716 1.002.935.385.219.853.347 1.321.347 1.62 0 2.856-1.226 2.856-3.938v-5.222H5.213v4.929c0 1.172-.368 1.978-1.32 1.978-.668 0-1.086-.475-1.27-.988-.067-.166-.084-.403-.084-.606v-5.313H0Z" transform="translate(146.962 76.161)"/><path style="fill:#fff;fill-opacity:1;fill-rule:nonzero;stroke:none" d="M0 0c0 .659-.268 1.813-1.42 1.813C-2.506 1.813-2.94.732-3.008 0Zm-2.991-1.907c.084-1.171 1.12-1.721 2.306-1.721.869 0 1.571.127 2.255.384l.335-1.887c-.836-.385-1.855-.568-2.958-.568-2.773 0-4.36 1.76-4.36 4.581 0 2.271 1.303 4.781 4.127 4.781 2.64 0 3.641-2.253 3.641-4.471 0-.474-.049-.898-.083-1.117z" transform="translate(161.698 68.669)"/><path style="fill:#fff;fill-opacity:1;fill-rule:nonzero;stroke:none" d="M0 0c0 1.318-.017 2.181-.067 2.949h2.172l.1-1.668h.067C2.689 2.602 3.676 3.15 4.478 3.15c.234 0 .35-.018.535-.053V.476c-.218.037-.418.073-.702.073-.936 0-1.571-.53-1.738-1.411a3.377 3.377 0 0 1-.051-.622V-6.01H-.017z" transform="translate(165.592 69.163)"/><path style="fill:#fff;fill-opacity:1;fill-rule:nonzero;stroke:none" d="M0 0c-.451-.237-1.521-.529-2.874-.529-3.893 0-5.897 2.668-5.897 6.195 0 4.203 2.74 6.524 6.148 6.524 1.319 0 2.322-.293 2.773-.548l-.535-2.194c-.501.239-1.219.457-2.138.457-2.005 0-3.576-1.333-3.576-4.092 0-2.468 1.337-4.022 3.593-4.022.785 0 1.62.164 2.139.402z" transform="translate(117.581 46.597)"/><path style="fill:#fff;fill-opacity:1;fill-rule:nonzero;stroke:none" d="M0 0h2.54v-5.117h.033a2.82 2.82 0 0 0 1.002.932c.385.22.853.347 1.321.347 1.621 0 2.857-1.224 2.857-3.93v-5.208h-2.54v4.917c0 1.169-.367 1.973-1.32 1.973-.668 0-1.086-.475-1.27-.986-.066-.164-.083-.402-.083-.604v-5.3H0Z" transform="translate(119.137 59.243)"/><path style="fill:#fff;fill-opacity:1;fill-rule:nonzero;stroke:none" d="M0 0c-1.337 0-2.373-.349-2.373-1.407 0-.714.435-1.061 1.003-1.061.618 0 1.152.456 1.32 1.024.033.146.05.31.05.475zm2.456-2.065c0-.841.033-1.664.134-2.158H.301l-.151.897H.101c-.536-.714-1.371-1.097-2.34-1.097-1.655 0-2.64 1.315-2.64 2.74 0 2.322 1.904 3.418 4.795 3.418v.111c0 .474-.233 1.15-1.486 1.15-.836 0-1.722-.309-2.256-.657l-.468 1.772c.567.348 1.688.804 3.175.804 2.723 0 3.575-1.755 3.575-3.856z" transform="translate(133.273 50.49)"/><path style="fill:#fff;fill-opacity:1;fill-rule:nonzero;stroke:none" d="M0 0c0 1.114-.033 2.047-.066 2.852h2.205l.117-1.244h.051a2.886 2.886 0 0 0 2.522 1.444c1.671 0 2.924-1.224 2.924-3.857v-5.281H5.214v4.953C5.214.019 4.846.804 3.927.804c-.701 0-1.119-.53-1.303-1.041-.067-.183-.084-.439-.084-.695v-5.154H0Z" transform="translate(137.75 52.353)"/><path style="fill:#fff;fill-opacity:1;fill-rule:nonzero;stroke:none" d="M0 0c0 1.114-.034 2.047-.067 2.852h2.206l.116-1.244h.051a2.886 2.886 0 0 0 2.522 1.444c1.671 0 2.924-1.224 2.924-3.857v-5.281H5.213v4.953C5.213.019 4.845.804 3.926.804c-.701 0-1.119-.53-1.303-1.041-.067-.183-.084-.439-.084-.695v-5.154H0Z" transform="translate(147.543 52.353)"/><path style="fill:#fff;fill-opacity:1;fill-rule:nonzero;stroke:none" d="M0 0c0 .657-.268 1.81-1.42 1.81C-2.506 1.81-2.94.73-3.008 0Zm-2.991-1.901c.084-1.17 1.12-1.718 2.306-1.718.869 0 1.571.128 2.255.384l.335-1.882c-.836-.385-1.855-.568-2.958-.568-2.773 0-4.36 1.755-4.36 4.569 0 2.267 1.303 4.771 4.127 4.771 2.64 0 3.641-2.248 3.641-4.46 0-.474-.049-.894-.083-1.115z" transform="translate(162.28 51.77)"/><path style="fill:#fff;fill-opacity:1;fill-rule:nonzero;stroke:none" d="M166.157 59.243h2.539V46.267h-2.539z"/></g></svg>